<?xml version="1.0" encoding="UTF-8" standalone="no"?>
<!-- Created with Inkscape (http://www.inkscape.org/) -->

<svg
   width="144.27357mm"
   height="95.980003mm"
   viewBox="0 0 144.27357 95.980003"
   version="1.1"
   id="svg5"
   inkscape:version="1.1.2 (0a00cf5339, 2022-02-04)"
   sodipodi:docname="hzdms1.svg"
   xmlns:inkscape="http://www.inkscape.org/namespaces/inkscape"
   xmlns:sodipodi="http://sodipodi.sourceforge.net/DTD/sodipodi-0.dtd"
   xmlns:xlink="http://www.w3.org/1999/xlink"
   xmlns="http://www.w3.org/2000/svg"
   xmlns:svg="http://www.w3.org/2000/svg"
   xmlns:rdf="http://www.w3.org/1999/02/22-rdf-syntax-ns#"
   xmlns:cc="http://creativecommons.org/ns#"
   xmlns:dc="http://purl.org/dc/elements/1.1/">
  <title
     id="title691">Hex-Zip File Splitting Demonstration</title>
  <sodipodi:namedview
     id="namedview7"
     pagecolor="#505050"
     bordercolor="#eee"
     borderopacity="1"
     inkscape:showpageshadow="false"
     inkscape:pageopacity="0"
     inkscape:pagecheckerboard="0"
     inkscape:deskcolor="#505050"
     inkscape:document-units="mm"
     showgrid="false"
     inkscape:zoom="1"
     inkscape:cx="173.5"
     inkscape:cy="186.5"
     inkscape:window-width="1366"
     inkscape:window-height="704"
     inkscape:window-x="0"
     inkscape:window-y="0"
     inkscape:window-maximized="1"
     inkscape:current-layer="layer1"
     inkscape:pageshadow="2"
     height="94.98mm" />
  <defs
     id="defs2">
    <linearGradient
       inkscape:collect="always"
       id="linearGradient944">
      <stop
         style="stop-color:black;stop-opacity:1;"
         offset="0"
         id="stop940" />
      <stop
         style="stop-color:black;stop-opacity:0;"
         offset="1"
         id="stop942" />
    </linearGradient>
    <linearGradient
       inkscape:collect="always"
       xlink:href="#linearGradient944"
       id="linearGradient946"
       x1="104.07411"
       y1="8.4774761"
       x2="410.26382"
       y2="8.4774761"
       gradientUnits="userSpaceOnUse" />
  </defs>
  <g
     inkscape:label="Layer 1"
     inkscape:groupmode="layer"
     id="layer1">
    <rect
       id="rect429"
       width="169.69144"
       height="119.96732"
       x="38.896584"
       y="-98.948402"
       style="fill:#111111;fill-opacity:1;stroke-width:0.264583"
       ry="4.4948163" />
    <text
       xml:space="preserve"
       style="font-style:normal;font-variant:normal;font-weight:normal;font-stretch:normal;font-size:16.5886px;line-height:125%;font-family:sans-serif;-inkscape-font-specification:'sans-serif, Normal';font-variant-ligatures:normal;font-variant-caps:normal;font-variant-numeric:normal;font-variant-east-asian:normal;letter-spacing:0px;word-spacing:0px;fill:#ffffff;fill-opacity:1;stroke:none;stroke-width:1px;stroke-linecap:butt;stroke-linejoin:miter;stroke-opacity:1"
       x="102.26344"
       y="13.377485"
       id="text753"
       transform="matrix(0.44870523,0,0,0.44448771,-42.424944,2.2073922)"><tspan
         sodipodi:role="line"
         x="102.26344"
         y="13.377485"
         id="tspan755"
         style="font-style:normal;font-variant:normal;font-weight:normal;font-stretch:normal;font-size:16.5886px;font-family:sans-serif;-inkscape-font-specification:'sans-serif, Normal';font-variant-ligatures:normal;font-variant-caps:normal;font-variant-numeric:normal;font-variant-east-asian:normal;fill:#ffffff;fill-opacity:1">Hex-Zip Splitting Demo: ~2.4KiB file</tspan></text>
    <rect
       style="fill:#133c19;fill-opacity:1;stroke:none;stroke-width:0.064;stroke-linecap:square;stroke-linejoin:round"
       id="rect1000"
       width="41.321568"
       height="37.754238"
       x="12.188375"
       y="29.727745"
       transform="matrix(0.44870523,0,0,0.44448771,15.466295,-0.43533138)"
       ry="4.8171659" />
    <rect
       style="fill:#133c19;fill-opacity:1;stroke:none;stroke-width:0.064;stroke-linecap:square;stroke-linejoin:round"
       id="rect1002"
       width="44.888897"
       height="38.051514"
       x="54.99633"
       y="30.916855"
       transform="matrix(0.44870523,0,0,0.44448771,23.469692,-1.4924208)"
       ry="4.8171659" />
    <rect
       style="fill:#133c19;fill-opacity:1;stroke:none;stroke-width:0.064;stroke-linecap:square;stroke-linejoin:round"
       id="rect1004"
       width="42.510677"
       height="41.024288"
       x="104.93894"
       y="27.052248"
       transform="matrix(0.97271763,0,0,0.44448771,-25.917236,0.22534951)"
       ry="4.8171659" />
    <text
       xml:space="preserve"
       style="font-style:normal;font-variant:normal;font-weight:normal;font-stretch:normal;font-size:17.8768px;line-height:125%;font-family:sans-serif;-inkscape-font-specification:'sans-serif, Normal';font-variant-ligatures:normal;font-variant-caps:normal;font-variant-numeric:normal;font-variant-east-asian:normal;letter-spacing:0px;word-spacing:0px;fill:#f3f3c1;fill-opacity:1;stroke:none;stroke-width:1px;stroke-linecap:butt;stroke-linejoin:miter;stroke-opacity:1"
       x="18.431202"
       y="46.672562"
       id="text1023"
       transform="matrix(0.44870523,0,0,0.44448771,13.332056,0.09321333)"><tspan
         sodipodi:role="line"
         id="tspan1021"
         x="18.431202"
         y="46.672562">1KiB</tspan></text>
    <text
       xml:space="preserve"
       style="font-size:18.6667px;line-height:125%;font-family:sans-serif;-inkscape-font-specification:'sans-serif, Normal';letter-spacing:0px;word-spacing:0px;fill:#f3f3c1;fill-opacity:1;stroke:none;stroke-width:1px;stroke-linecap:butt;stroke-linejoin:miter;stroke-opacity:1"
       x="18.431202"
       y="46.672562"
       id="text1023-3"
       transform="matrix(0.44870523,0,0,0.44448771,40.290289,-1.0409369)"><tspan
         sodipodi:role="line"
         id="tspan1021-6"
         x="18.431202"
         y="46.672562">1KiB</tspan></text>
    <text
       xml:space="preserve"
       style="font-size:8.33639px;line-height:125%;font-family:sans-serif;-inkscape-font-specification:'sans-serif, Normal';letter-spacing:0px;word-spacing:0px;fill:#f3f3c1;fill-opacity:1;stroke:none;stroke-width:0.446591px;stroke-linecap:butt;stroke-linejoin:miter;stroke-opacity:1"
       x="75.888062"
       y="19.144241"
       id="text1023-1"
       transform="scale(1.004733,0.99528927)"><tspan
         sodipodi:role="line"
         x="75.888062"
         y="19.144241"
         style="font-style:normal;font-variant:normal;font-weight:normal;font-stretch:normal;font-size:4.76366px;font-family:sans-serif;-inkscape-font-specification:'sans-serif, Normal';font-variant-ligatures:normal;font-variant-caps:normal;font-variant-numeric:normal;font-variant-east-asian:normal;stroke-width:0.446591px"
         id="tspan1746">0.4KiB</tspan></text>
    <text
       xml:space="preserve"
       style="font-size:18.6667px;line-height:125%;font-family:sans-serif;-inkscape-font-specification:'sans-serif, Normal';letter-spacing:0px;word-spacing:0px;fill:#f3f3c1;fill-opacity:1;stroke:none;stroke-width:1px;stroke-linecap:butt;stroke-linejoin:miter;stroke-opacity:1"
       x="18.431202"
       y="46.672562"
       id="text1023-1-42"
       transform="matrix(0.44870523,0,0,0.44448771,16.848501,5.5069761)"><tspan
         sodipodi:role="line"
         x="18.431202"
         y="46.672562"
         style="font-style:normal;font-variant:normal;font-weight:normal;font-stretch:normal;font-size:10.6667px;font-family:sans-serif;-inkscape-font-specification:'sans-serif, Normal';font-variant-ligatures:normal;font-variant-caps:normal;font-variant-numeric:normal;font-variant-east-asian:normal"
         id="tspan1140-6">Data</tspan></text>
    <rect
       style="fill:#430900;fill-opacity:1;stroke:none;stroke-width:0.0675745;stroke-linecap:square;stroke-linejoin:round;stroke-dasharray:none;paint-order:stroke fill markers"
       id="rect1196"
       width="59.158215"
       height="44.888897"
       x="138.82857"
       y="26.457693"
       transform="matrix(0.44282418,0,0,0.40718995,29.951176,1.4684191)"
       ry="4.8171659" />
    <text
       xml:space="preserve"
       style="font-style:normal;font-variant:normal;font-weight:normal;font-stretch:normal;font-size:9.9775px;line-height:125%;font-family:sans-serif;-inkscape-font-specification:'sans-serif, Normal';font-variant-ligatures:normal;font-variant-caps:normal;font-variant-numeric:normal;font-variant-east-asian:normal;letter-spacing:0px;word-spacing:0px;fill:#f3f3c1;fill-opacity:1;stroke:none;stroke-width:1px;stroke-linecap:butt;stroke-linejoin:miter;stroke-opacity:1"
       x="18.431202"
       y="46.672562"
       id="text1023-1-9"
       transform="matrix(0.44870523,0,0,0.44448771,84.427676,-3.9031398)"><tspan
         sodipodi:role="line"
         x="18.431202"
         y="46.672562"
         style="font-style:normal;font-variant:normal;font-weight:normal;font-stretch:normal;font-size:9.9775px;font-family:sans-serif;-inkscape-font-specification:'sans-serif, Normal';font-variant-ligatures:normal;font-variant-caps:normal;font-variant-numeric:normal;font-variant-east-asian:normal"
         id="tspan1269">Rest of the</tspan></text>
    <text
       xml:space="preserve"
       style="font-style:normal;font-variant:normal;font-weight:normal;font-stretch:normal;font-size:9.97742px;line-height:125%;font-family:sans-serif;-inkscape-font-specification:'sans-serif, Normal';font-variant-ligatures:normal;font-variant-caps:normal;font-variant-numeric:normal;font-variant-east-asian:normal;letter-spacing:0px;word-spacing:0px;fill:#f3f3c1;fill-opacity:1;stroke:none;stroke-width:1px;stroke-linecap:butt;stroke-linejoin:miter;stroke-opacity:1"
       x="18.431202"
       y="46.672562"
       id="text1023-1-8"
       transform="matrix(0.44870523,0,0,0.44448771,84.160896,0.72162642)"><tspan
         sodipodi:role="line"
         x="18.431202"
         y="46.672562"
         style="font-style:normal;font-variant:normal;font-weight:normal;font-stretch:normal;font-size:9.97742px;font-family:sans-serif;-inkscape-font-specification:'sans-serif, Normal';font-variant-ligatures:normal;font-variant-caps:normal;font-variant-numeric:normal;font-variant-east-asian:normal"
         id="tspan1140-1">block filled</tspan></text>
    <text
       xml:space="preserve"
       style="font-size:18.6667px;line-height:125%;font-family:sans-serif;-inkscape-font-specification:'sans-serif, Normal';letter-spacing:0px;word-spacing:0px;fill:#f3f3c1;fill-opacity:1;stroke:none;stroke-width:1px;stroke-linecap:butt;stroke-linejoin:miter;stroke-opacity:1"
       x="18.431202"
       y="46.672562"
       id="text1023-1-4"
       transform="matrix(0.44870523,0,0,0.44448771,84.160896,5.4785288)"><tspan
         sodipodi:role="line"
         x="18.431202"
         y="46.672562"
         style="font-style:normal;font-variant:normal;font-weight:normal;font-stretch:normal;font-size:10.6667px;font-family:sans-serif;-inkscape-font-specification:'sans-serif, Normal';font-variant-ligatures:normal;font-variant-caps:normal;font-variant-numeric:normal;font-variant-east-asian:normal"
         id="tspan1140-13">with 0s</tspan></text>
    <rect
       style="fill:#433e00;fill-opacity:1;stroke:none;stroke-width:0.064252;stroke-linecap:square;stroke-linejoin:round;stroke-dasharray:none;paint-order:stroke fill markers"
       id="rect1387"
       width="40.727013"
       height="36.267849"
       x="9.8101559"
       y="32.105965"
       transform="matrix(0.44870523,0,0,0.44448771,-0.67388918,-1.3602846)"
       ry="4.8171659" />
    <rect
       style="fill:#433e00;fill-opacity:1;stroke:none;stroke-width:0.064252;stroke-linecap:square;stroke-linejoin:round;stroke-dasharray:none;paint-order:stroke fill markers"
       id="rect1387-9"
       width="40.727013"
       height="36.267849"
       x="9.8101559"
       y="32.105965"
       transform="matrix(0.51420964,0,0,0.50278118,111.99827,-4.0246692)"
       ry="4.8171659" />
    <text
       xml:space="preserve"
       style="font-size:18.6667px;line-height:125%;font-family:sans-serif;-inkscape-font-specification:'sans-serif, Normal';letter-spacing:0px;word-spacing:0px;fill:none;stroke:#000000;stroke-width:1px;stroke-linecap:butt;stroke-linejoin:miter;stroke-opacity:1"
       x="24.971306"
       y="42.807953"
       id="text1569"
       transform="scale(0.26458333)"><tspan
         sodipodi:role="line"
         id="tspan1567"
         x="24.971306"
         y="42.807953" /></text>
    <text
       xml:space="preserve"
       style="font-size:18.6667px;line-height:125%;font-family:sans-serif;-inkscape-font-specification:'sans-serif, Normal';letter-spacing:0px;word-spacing:0px;fill:#f3f3c1;fill-opacity:1;stroke:none;stroke-width:1px;stroke-linecap:butt;stroke-linejoin:miter;stroke-opacity:1"
       x="18.431202"
       y="46.672562"
       id="text1023-3-5"
       transform="matrix(0.44870523,0,0,0.44448771,2.2607913,-0.02056683)"><tspan
         sodipodi:role="line"
         id="tspan1021-6-0"
         x="18.431202"
         y="46.672562">S</tspan></text>
    <text
       xml:space="preserve"
       style="font-size:18.6667px;line-height:125%;font-family:sans-serif;-inkscape-font-specification:'sans-serif, Normal';letter-spacing:0px;word-spacing:0px;fill:#f3f3c1;fill-opacity:1;stroke:none;stroke-width:1px;stroke-linecap:butt;stroke-linejoin:miter;stroke-opacity:1"
       x="18.431202"
       y="46.672562"
       id="text1023-1-6"
       transform="matrix(0.44870523,0,0,0.44448771,-2.6264315,5.1105676)"><tspan
         sodipodi:role="line"
         x="18.431202"
         y="46.672562"
         style="font-style:normal;font-variant:normal;font-weight:normal;font-stretch:normal;font-size:10.6667px;font-family:sans-serif;-inkscape-font-specification:'sans-serif, Normal';font-variant-ligatures:normal;font-variant-caps:normal;font-variant-numeric:normal;font-variant-east-asian:normal"
         id="tspan1140-0">(Start)</tspan></text>
    <text
       xml:space="preserve"
       style="font-size:8.33639px;line-height:125%;font-family:sans-serif;-inkscape-font-specification:'sans-serif, Normal';letter-spacing:0px;word-spacing:0px;fill:#f3f3c1;fill-opacity:1;stroke:none;stroke-width:0.446591px;stroke-linecap:butt;stroke-linejoin:miter;stroke-opacity:1"
       x="7.3651257"
       y="42.379066"
       id="text1023-1-6-9"
       transform="scale(1.004733,0.99528925)"><tspan
         sodipodi:role="line"
         x="7.3651257"
         y="42.379066"
         style="font-style:normal;font-variant:normal;font-weight:normal;font-stretch:normal;font-size:4.76366px;font-family:sans-serif;-inkscape-font-specification:'sans-serif, Normal';font-variant-ligatures:normal;font-variant-caps:normal;font-variant-numeric:normal;font-variant-east-asian:normal;stroke-width:0.446591px"
         id="tspan2875">First Block</tspan></text>
    <text
       xml:space="preserve"
       style="font-size:8.33639px;line-height:125%;font-family:sans-serif;-inkscape-font-specification:'sans-serif, Normal';letter-spacing:0px;word-spacing:0px;fill:#f3f3c1;fill-opacity:1;stroke:none;stroke-width:0.446591px;stroke-linecap:butt;stroke-linejoin:miter;stroke-opacity:1"
       x="43.040401"
       y="42.656994"
       id="text1023-1-6-9-1"
       transform="scale(1.004733,0.99528925)"><tspan
         sodipodi:role="line"
         x="43.040401"
         y="42.656994"
         style="font-style:normal;font-variant:normal;font-weight:normal;font-stretch:normal;font-size:4.76366px;font-family:sans-serif;-inkscape-font-specification:'sans-serif, Normal';font-variant-ligatures:normal;font-variant-caps:normal;font-variant-numeric:normal;font-variant-east-asian:normal;stroke-width:0.446591px"
         id="tspan2875-4">Second Block</tspan></text>
    <text
       xml:space="preserve"
       style="font-size:8.33639px;line-height:125%;font-family:sans-serif;-inkscape-font-specification:'sans-serif, Normal';letter-spacing:0px;word-spacing:0px;fill:#f3f3c1;fill-opacity:1;stroke:none;stroke-width:0.446591px;stroke-linecap:butt;stroke-linejoin:miter;stroke-opacity:1"
       x="93.464661"
       y="46.12878"
       id="text1023-1-6-9-4"
       transform="scale(1.004733,0.99528925)"><tspan
         sodipodi:role="line"
         x="93.464661"
         y="46.12878"
         style="font-style:normal;font-variant:normal;font-weight:normal;font-stretch:normal;font-size:4.76366px;font-family:sans-serif;-inkscape-font-specification:'sans-serif, Normal';font-variant-ligatures:normal;font-variant-caps:normal;font-variant-numeric:normal;font-variant-east-asian:normal;stroke-width:0.446591px"
         id="tspan2875-9">Third Block</tspan></text>
    <text
       xml:space="preserve"
       style="font-size:8.33639px;line-height:125%;font-family:sans-serif;-inkscape-font-specification:'sans-serif, Normal';letter-spacing:0px;word-spacing:0px;fill:#f3f3c1;fill-opacity:1;stroke:none;stroke-width:0.446591px;stroke-linecap:butt;stroke-linejoin:miter;stroke-opacity:1"
       x="124.74541"
       y="20.892637"
       id="text1023-3-5-5"
       transform="scale(1.004733,0.99528925)"><tspan
         sodipodi:role="line"
         id="tspan1021-6-0-1"
         x="124.74541"
         y="20.892637"
         style="stroke-width:0.446591px">E</tspan></text>
    <text
       xml:space="preserve"
       style="font-size:8.33639px;line-height:125%;font-family:sans-serif;-inkscape-font-specification:'sans-serif, Normal';letter-spacing:0px;word-spacing:0px;fill:#f3f3c1;fill-opacity:1;stroke:none;stroke-width:0.446591px;stroke-linecap:butt;stroke-linejoin:miter;stroke-opacity:1"
       x="121.27256"
       y="26.38286"
       id="text1023-1-6-3"
       transform="scale(1.004733,0.99528925)"><tspan
         sodipodi:role="line"
         x="121.27256"
         y="26.38286"
         style="font-style:normal;font-variant:normal;font-weight:normal;font-stretch:normal;font-size:4.76366px;font-family:sans-serif;-inkscape-font-specification:'sans-serif, Normal';font-variant-ligatures:normal;font-variant-caps:normal;font-variant-numeric:normal;font-variant-east-asian:normal;stroke-width:0.446591px"
         id="tspan1140-0-5">(End)</tspan></text>
    <text
       xml:space="preserve"
       style="font-size:18.6667px;line-height:125%;font-family:sans-serif;-inkscape-font-specification:'sans-serif, Normal';letter-spacing:0px;word-spacing:0px;fill:#f3f3c1;fill-opacity:1;stroke:none;stroke-width:1px;stroke-linecap:butt;stroke-linejoin:miter;stroke-opacity:1"
       x="18.431202"
       y="46.672562"
       id="text1023-1-2"
       transform="matrix(0.44870523,0,0,0.44448771,44.193441,4.9784314)"><tspan
         sodipodi:role="line"
         x="18.431202"
         y="46.672562"
         style="font-style:normal;font-variant:normal;font-weight:normal;font-stretch:normal;font-size:10.6667px;font-family:sans-serif;-inkscape-font-specification:'sans-serif, Normal';font-variant-ligatures:normal;font-variant-caps:normal;font-variant-numeric:normal;font-variant-east-asian:normal"
         id="tspan1140-4">Data</tspan></text>
    <text
       xml:space="preserve"
       style="font-size:8.33639px;line-height:125%;font-family:sans-serif;-inkscape-font-specification:'sans-serif, Normal';letter-spacing:0px;word-spacing:0px;fill:#f3f3c1;fill-opacity:1;stroke:none;stroke-width:0.446591px;stroke-linecap:butt;stroke-linejoin:miter;stroke-opacity:1"
       x="77.846329"
       y="25.521408"
       id="text1023-1-0"
       transform="scale(1.004733,0.99528925)"><tspan
         sodipodi:role="line"
         x="77.846329"
         y="25.521408"
         style="font-style:normal;font-variant:normal;font-weight:normal;font-stretch:normal;font-size:4.76366px;font-family:sans-serif;-inkscape-font-specification:'sans-serif, Normal';font-variant-ligatures:normal;font-variant-caps:normal;font-variant-numeric:normal;font-variant-east-asian:normal;stroke-width:0.446591px"
         id="tspan1140">Data</tspan></text>
    <path
       style="fill:none;stroke:#ffffff;stroke-width:1px;stroke-linecap:butt;stroke-linejoin:miter;stroke-opacity:1"
       d="m 2.6754971,61.833712 c 0,1.090017 0,2.180034 0,3.270052 0,0.198185 -0.062672,0.40654 0,0.594555 0.044316,0.132946 0.252962,0.164331 0.2972775,0.297277 0.062672,0.188015 0,0.39637 0,0.594555 0.099092,0.297277 0.1808992,0.600887 0.2972775,0.891832 0.082292,0.20573 0.2272084,0.384348 0.2972774,0.594555 0.031336,0.09401 -0.08245,0.242311 0,0.297278 0.4108274,0.273885 0.9448223,0.10598 1.1891099,0.594555 0.116094,0.232188 0.3348017,1.226634 0.5945549,1.486387 0.156679,0.156679 0.4045537,0.183277 0.5945549,0.297277 0.3063677,0.183821 0.5722687,0.434773 0.8918324,0.594555 0.088631,0.04432 0.1981849,0 0.2972774,0 0.2972775,0.09909 0.6231302,0.136056 0.8918324,0.297278 0.2403346,0.144201 0.3438686,0.469211 0.5945549,0.594555 0.1772621,0.08863 0.39637,0 0.5945549,0 0.7927398,0 1.5854798,0 2.3782198,0 1.387295,0 2.77459,0 4.161884,0 0.594555,0 1.18911,0 1.783665,0 0.09909,0 0.20327,0.03133 0.297278,0 0.210206,-0.07007 0.39637,-0.198185 0.594554,-0.297278 0.39637,0 0.798133,0.06516 1.18911,0 0.218563,-0.03643 0.379593,-0.243537 0.594555,-0.297277 0.192268,-0.04807 0.39637,0 0.594555,0 0.39637,0 0.79274,0 1.18911,0 0.297277,0 0.597543,0.04204 0.891832,0 0.404463,-0.05778 0.78304,-0.252159 1.18911,-0.297278 0.777116,-0.08635 1.844857,0 2.675497,0 0.201511,0 2.426091,0.04988 2.675497,0 0.217275,-0.04346 0.377281,-0.253822 0.594555,-0.297277 0.291505,-0.0583 0.594555,0 0.891833,0 0.297277,0 0.594555,0 0.891832,0 0.79274,0 1.58548,0 2.37822,0 0.944081,0 2.100253,-0.138983 2.972774,0.297277 0.08863,0.04432 -0.07007,0.227209 0,0.297278 0.156679,0.156679 0.437876,0.140598 0.594555,0.297277 0.156679,0.156679 0.140599,0.437876 0.297278,0.594555 0.912464,0.912464 0.247179,-0.173688 1.18911,0.297278 0.177262,0.08863 -0.140138,0.454417 0,0.594555 0.252637,0.252637 0.668639,0.315563 0.891832,0.594554 0.195753,0.244692 0.180899,0.600887 0.297278,0.891833 0.09909,0.198185 0.198184,0.39637 0.297277,0.594555 0,0.09909 -0.03134,0.20327 0,0.297277 0.07007,0.210207 0.227208,0.384348 0.297277,0.594555 0.03134,0.09401 -0.07007,0.227209 0,0.297278 0.156679,0.156679 0.471646,0.112913 0.594555,0.297277 0.02029,0.03043 0,1.0199 0,1.18911 0,1.090017 0,2.180035 0,3.270052 0,0.79274 0,1.58548 0,2.37822 0,0.186419 -0.03672,1.152389 0,1.189109 0.07007,0.07007 0.227209,-0.07007 0.297278,0 0.07007,0.07007 0,0.39637 0,0.297278 0,-1.486387 0,-2.972775 0,-4.459162 0,-0.594555 0,-1.18911 0,-1.783665 0,-0.09909 -0.03134,-0.20327 0,-0.297277 0.07007,-0.210207 0.253822,-0.37728 0.297277,-0.594555 0.0639,-0.319503 0,-1.611847 0,-2.080942 0,-0.09909 -0.07007,-0.227209 0,-0.297278 0.07007,-0.07007 0.208647,0.04432 0.297278,0 0.125343,-0.06267 0.171934,-0.234606 0.297277,-0.297277 0.08863,-0.04432 0.208647,0.04431 0.297278,0 0.125343,-0.06267 0.164331,-0.252962 0.297277,-0.297278 0.188015,-0.06267 0.429655,0.109934 0.594555,0 0.184364,-0.122909 0.140599,-0.437876 0.297277,-0.594555 0.07007,-0.07007 0.208647,0.04432 0.297278,0 0.125343,-0.06267 0.171934,-0.234606 0.297277,-0.297277 0.08863,-0.04432 0.198185,0 0.297278,0 0.09909,0 0.198185,0 0.297277,0 0.79274,0 1.58548,0 2.37822,0 0.990925,0 1.98185,0 2.972775,0 0.39637,0 0.81308,-0.125343 1.189109,0 0.265893,0.08863 0.361352,0.439086 0.594555,0.594555 0.08245,0.05497 0.208647,-0.04432 0.297278,0 0.125343,0.06267 0.167162,0.245231 0.297277,0.297277 0.396063,0.826586 0.996199,0.174731 1.486388,0.297278 0.304001,0.076 0.584559,0.235823 0.891832,0.297277 0.388673,0.07774 0.79274,0 1.18911,0 1.090017,0 2.180034,0 3.270052,0 2.972774,0 5.945549,0 8.918324,0 1.684572,0 3.369144,0 5.053716,0 0.79274,0 1.58548,0 2.37822,0 0.297278,0 0.597543,0.04204 0.891832,0 0.404463,-0.05778 0.783697,-0.246601 1.18911,-0.297277 0.688291,-0.08604 1.387295,0 2.080943,0 1.363216,0 -0.313358,0.06267 1.486387,-0.297278 0.194336,-0.03887 0.39637,0 0.594555,0 0.09909,0 0.252962,0.08863 0.297277,0 0.08863,-0.177262 -0.140138,-0.454417 0,-0.594555 0.221578,-0.221577 0.600887,-0.180899 0.891833,-0.297277 0.205729,-0.08229 0.39637,-0.198185 0.594555,-0.297278 0.297277,-0.09909 0.598426,-0.18725 0.891832,-0.297277 0.499653,-0.18737 0.986734,-0.407185 1.486387,-0.594555 0.293406,-0.110027 0.62313,-0.136056 0.891833,-0.297277 0.240334,-0.144201 0.343868,-0.469212 0.594554,-0.594555 0.365436,-0.182718 0.809764,-0.145539 1.18911,-0.297278 0.197089,-0.07884 0.926512,-1.014044 1.18911,-1.18911 0.184364,-0.122909 0.471646,-0.112913 0.594555,-0.297277 0.05853,-0.08779 -0.03695,-1.338573 0,-1.486387 0.382688,-1.530753 0.304605,0.543265 0.594555,-1.486388 0.08408,-0.588579 0,-1.18911 0,-1.783664 0,-1.486388 0,-2.972775 0,-4.459162"
       id="path2846"
       transform="matrix(0.44870523,0,0,0.44448771,0.39323043,-0.43533138)" />
    <path
       style="fill:none;stroke:#ffffff;stroke-width:1px;stroke-linecap:butt;stroke-linejoin:miter;stroke-opacity:1"
       d="m 98.696117,60.941879 c 0.181976,0.04682 -0.108933,1.754145 0,2.080942 0.07007,0.210207 0.174368,0.410192 0.297277,0.594555 0.09678,0.145176 1.043936,1.092326 1.189106,1.18911 0.43322,0.288811 0.61919,0.18559 0.89184,0.594555 0.3549,0.532352 0.33909,1.025771 0.89183,1.486387 0.34044,0.283701 0.87575,0.281197 1.18911,0.594555 0.22158,0.221578 0.10926,0.641146 0.29728,0.891833 0.13294,0.177262 0.43787,0.140598 0.59455,0.297277 0.0701,0.07007 -0.024,0.201144 0,0.297278 0.076,0.304001 0.12346,0.631102 0.29728,0.891832 0.055,0.08245 0.19818,0 0.29728,0 0.29727,0 0.60981,-0.09401 0.89183,0 0.68699,0.228999 -0.13386,0.527623 0.59455,0.891832 0.2659,0.132947 0.59456,0 0.89184,0 0.89183,0 1.78366,0 2.67549,0 0.29728,0 0.60033,-0.0583 0.89183,0 0.21728,0.04345 0.376,0.260851 0.59456,0.297278 0.68421,0.114035 1.40076,-0.136036 2.08094,0 0.21728,0.04346 0.39637,0.198185 0.59456,0.297277 0.29727,0.09909 0.58456,0.235823 0.89183,0.297278 0.38867,0.07773 0.79274,0 1.18911,0 0.89183,0 1.78366,0 2.6755,0 0.39637,0 0.79274,0 1.18911,0 0.29727,0 0.60032,-0.0583 0.89183,0 0.21727,0.04346 0.37959,0.243537 0.59455,0.297277 0.19227,0.04807 0.40022,-0.03887 0.59456,0 0.30727,0.06145 0.58274,0.245762 0.89183,0.297278 0.48872,0.08145 1.00055,-0.09717 1.48639,0 0.27251,0.0545 1.19812,0.378353 1.48639,0.594555 0.22422,0.168165 0.37033,0.426389 0.59455,0.594555 0.51951,0.389629 0.88685,0.294787 1.48639,0.594554 0.12326,0.06163 1.14891,1.088621 1.18911,1.18911 0.15174,0.379347 0.14554,0.809764 0.29727,1.18911 0.0521,0.130115 0.2132,0.185167 0.29728,0.297278 0.21437,0.285826 0.43478,0.572268 0.59456,0.891832 0.14014,0.280276 0.1809,0.600887 0.29727,0.891832 0.0823,0.20573 0.24354,0.379593 0.29728,0.594555 0.0481,0.192268 0,0.39637 0,0.594555 0,0.594555 0,1.18911 0,1.783665 0,0.693647 0,1.387295 0,2.080942 0,0.297278 0,0.594555 0,0.891833 0,0.09909 -0.0991,0.297277 0,0.297277 0.12443,0 -0.0775,-0.361956 0,-0.594555 0.0701,-0.210207 0.24354,-0.379593 0.29728,-0.594555 0.0481,-0.192268 0,-0.39637 0,-0.594555 0,-0.09909 -0.0443,-0.208646 0,-0.297277 0.0627,-0.125343 0.25296,-0.164331 0.29728,-0.297278 0.11189,-0.335682 -0.0733,-1.120121 0,-1.486387 0.0615,-0.307273 0.24576,-0.582738 0.29727,-0.891832 0.0652,-0.390977 0,-0.79274 0,-1.18911 0,-0.06881 -0.0531,-1.677484 0,-1.783665 0.22766,-0.455304 0.52976,-0.232476 0.89184,-0.594555 0.0701,-0.07007 -0.0313,-0.20327 0,-0.297277 0.0701,-0.210207 0.22721,-0.384348 0.29727,-0.594555 0.0313,-0.09401 -0.055,-0.214828 0,-0.297278 1.06916,-1.603732 0.0925,0.204748 1.18911,-0.891832 0.92219,-0.92219 -0.63708,-0.458631 1.18911,-1.18911 0.18401,-0.0736 0.39637,0 0.59456,0 0.39637,0 0.79274,0 1.18911,0 1.38729,0 2.77459,0 4.16188,0 2.97278,0 5.94555,0 8.91833,0 0.89183,0 1.78366,0 2.67549,0 0.0991,0 0.22721,0.07007 0.29728,0 0.0701,-0.07007 -0.0824,-0.242311 0,-0.297277 0.26073,-0.17382 0.58783,-0.221277 0.89183,-0.297278 0.0961,-0.02403 0.22721,0.07007 0.29728,0 0.15668,-0.156679 0.17437,-0.410191 0.29728,-0.594555 0.0777,-0.116602 0.19818,-0.198185 0.29728,-0.297277 0.0991,-0.09909 0.17193,-0.234606 0.29727,-0.297278 0.0886,-0.04432 0.20327,0.03134 0.29728,0 0.65537,-0.218456 1.31322,-0.793728 1.48639,-1.486387 0.0503,-0.201181 0,-1.889642 0,-2.080942 0,-1.58548 0,-3.17096 0,-4.75644 0,-0.297277 0,-0.594554 0,-0.891832 0,-0.09909 0.0701,-0.227208 0,-0.297277 -0.0701,-0.07007 -0.19819,0 -0.29728,0"
       id="path2879"
       transform="matrix(0.44870523,0,0,0.44448771,0.39323043,-0.43533138)" />
    <path
       style="fill:none;stroke:#ffffff;stroke-width:1px;stroke-linecap:butt;stroke-linejoin:miter;stroke-opacity:1"
       d="m 162.90805,62.130989 c 0.68217,0.626884 0.69747,1.640765 1.18911,2.37822 0.0777,0.116602 0.21954,0.180675 0.29728,0.297277 0.1229,0.184364 0.14059,0.437876 0.29727,0.594555 0.61508,0.615078 -0.024,-0.93992 0.59456,0.297278 0.0443,0.08863 -0.051,0.212306 0,0.297277 0.75299,1.254992 1.94883,2.246105 2.97277,3.270052 0.39637,0.39637 0.79274,0.79274 1.18911,1.18911 0.19819,0.198185 0.37034,0.426389 0.59456,0.594555 0.28582,0.21437 0.58546,0.410734 0.89183,0.594555 0.63032,0.378194 0.73013,0.310959 1.48639,0.594555 0.49965,0.187369 0.9959,0.384348 1.48638,0.594555 0.20367,0.08728 0.3796,0.243537 0.59456,0.297277 0.19227,0.04807 0.39907,-0.03258 0.59455,0 0.40301,0.06717 0.78304,0.252159 1.18911,0.297278 0.49244,0.05471 1.00999,-0.136114 1.48639,0 0.26949,0.077 0.32866,0.505923 0.59456,0.594554 0.37603,0.125344 0.79274,0 1.18911,0 0.59455,0 1.18911,0 1.78366,0 1.58548,0 3.17096,0 4.75644,0 0.39637,0 0.79274,0 1.18911,0 0.49546,0 0.99338,-0.0493 1.48639,0 0.50276,0.05028 0.9842,0.24148 1.48638,0.297278 0.39395,0.04377 0.7958,-0.04916 1.18911,0 0.40542,0.05068 0.78465,0.239497 1.18911,0.297277 0.29429,0.04204 0.59456,0 0.89184,0 0.69364,0 1.38729,0 2.08094,0 0.19818,0 0.40022,-0.03887 0.59455,0 0.30728,0.06145 0.58274,0.245762 0.89184,0.297278 0.29323,0.04887 0.59455,0 0.89183,0 0.99092,0 1.98185,0 2.97277,0 0.29728,0 0.5986,-0.04887 0.89184,0 0.6698,0.111634 1.84109,0.784407 2.37821,0.891832 0.48585,0.09717 0.99296,-0.04486 1.48639,0 0.60028,0.05457 1.1839,0.237301 1.78367,0.297278 0.3944,0.03944 0.79274,0 1.18911,0 1.09001,0 2.18003,0 3.27005,0 4.85553,0 9.71106,0 14.56659,0 1.28821,0 2.57641,0 3.86461,0 0.79274,0 1.58548,0 2.37822,0 0.39637,0 0.80044,-0.07774 1.18911,0 0.13742,0.02748 0.18068,0.219543 0.29728,0.297277 0.18436,0.122909 0.38882,0.214986 0.59455,0.297278 0.29095,0.116378 0.67026,0.0757 0.89184,0.297277 0.22157,0.221578 0.18089,0.600887 0.29727,0.891832 0.0823,0.20573 0.21499,0.388826 0.29728,0.594555 0.11638,0.290946 0.19819,0.594555 0.29728,0.891833 0.19818,0.594555 0.42238,1.181062 0.59455,1.783664 0.11225,0.392849 0.11456,0.823675 0.29728,1.18911 0.22158,0.443155 0.74946,0.714543 0.89183,1.18911 0.17085,0.56948 0,1.18911 0,1.783665 0,0.693647 0,1.387295 0,2.080942 0,1.18911 0,2.37822 0,3.56733 0,0.39637 0,0.79274 0,1.189109 0,0.09909 -0.0991,0.297278 0,0.297278 0.0991,0 -0.0443,-0.208647 0,-0.297278 0.36735,-0.734692 0.29728,0.102614 0.29728,-0.594554 0,-0.891833 0,-1.783665 0,-2.675498 0,-0.198185 -0.0389,-0.400218 0,-0.594555 0.0615,-0.307272 0.23582,-0.584559 0.29728,-0.891832 0.0572,-0.285844 -0.0572,-0.605989 0,-0.891832 0.0801,-0.400635 0.21715,-0.788475 0.29727,-1.18911 0.0194,-0.09717 0,-0.198185 0,-0.297278 0,-0.723929 -0.0481,-0.977861 0.29728,-1.783664 0.14074,-0.328395 0.39637,-0.594555 0.59456,-0.891833 0.0991,-0.495462 0.15847,-1.000553 0.29727,-1.486387 0.12175,-0.426104 0.52171,-0.751984 0.59456,-1.18911 0.0652,-0.390977 0,-0.79274 0,-1.18911 0,-0.09909 -0.0443,-0.208646 0,-0.297277 0.0627,-0.125343 0.23461,-0.171934 0.29728,-0.297278 0.0443,-0.08863 -0.0443,-0.208646 0,-0.297277 0.0627,-0.125343 0.21954,-0.180676 0.29727,-0.297278 0.12291,-0.184363 0.1406,-0.437875 0.29728,-0.594554 0.15668,-0.156679 0.41019,-0.174369 0.59456,-0.297278 0.2332,-0.155469 0.34387,-0.469212 0.59455,-0.594555 0.0666,-0.03331 1.11847,0 1.18911,0 0.79274,0 1.58548,0 2.37822,0 1.09002,0 2.18004,0 3.27005,0 0.59456,0 1.19275,-0.06566 1.78367,0 0.59907,0.06656 1.18459,0.230714 1.78366,0.297278 0.29546,0.03283 0.60033,-0.0583 0.89184,0 0.21727,0.04345 0.37599,0.26085 0.59455,0.297277 0.39098,0.06516 0.79274,0 1.18911,0 0.29728,0 0.60343,-0.0721 0.89183,0 0.5177,0.129424 0.96547,0.478795 1.48639,0.594555 0.77386,0.171969 1.59345,-0.11211 2.37822,0 0.31021,0.04432 0.59455,0.198185 0.89183,0.297277 0.39637,0.09909 0.7837,0.246601 1.18911,0.297278 1.07325,0.134156 2.19681,-0.134156 3.27005,0 0.31094,0.03887 0.59053,0.211191 0.89184,0.297277 0.39284,0.112243 0.78369,0.246601 1.18911,0.297278 0.39331,0.04916 0.7958,-0.04916 1.18911,0 1.31835,0.164794 1.53588,0.604455 2.97277,0.891832 0.38867,0.07773 0.7958,-0.04916 1.18911,0 0.81083,0.101354 1.5693,0.478994 2.37822,0.594555 0.68668,0.0981 1.39265,-0.08604 2.08094,0 0.40542,0.05068 0.78465,0.239497 1.18911,0.297278 0.29429,0.04204 0.59456,0 0.89183,0 0.69365,0 1.3873,0 2.08095,0 2.08094,0 4.16188,0 6.24282,0 0.99093,0 1.98185,0 2.97278,0 0.49546,0 1.00192,0.103813 1.48639,0 0.9192,-0.196973 1.75367,-0.707469 2.67549,-0.891833 0.58301,-0.116602 1.19206,0.05916 1.78367,0 0.81308,-0.08131 1.56608,-0.504317 2.37822,-0.594555 0.49243,-0.05471 0.9959,0.07007 1.48638,0 0.21935,-0.03133 0.38883,-0.214985 0.59456,-0.297277 0.29094,-0.116378 0.58162,-0.252962 0.89183,-0.297278 0.39239,-0.05606 0.81308,0.125344 1.18911,0 0.26589,-0.08863 0.32866,-0.505923 0.59456,-0.594555 2.25957,0 0.36004,0.177263 1.78366,-0.297277 0.31469,-0.104898 1.24304,0.121675 1.48639,0 0.0886,-0.04431 -0.055,-0.214827 0,-0.297277 0.85956,-1.289344 0.38357,0.08154 0.89183,-1.18911 0.11638,-0.290946 0.21119,-0.590531 0.29728,-0.891833 0.11224,-0.392848 0.14554,-0.809763 0.29728,-1.189109 0.052,-0.130115 0.21954,-0.180676 0.29727,-0.297278 0.58714,-0.880713 1.37742,-2.32214 1.78367,-3.270052 0.039,-0.09108 0,-0.198185 0,-0.297277 0,-0.198185 -0.0627,-0.406541 0,-0.594555 0.0443,-0.132947 0.27424,-0.159047 0.29728,-0.297278 0.0814,-0.488721 0,-0.990925 0,-1.486387 0,-1.090017 0,-2.180035 0,-3.270052"
       id="path2883"
       transform="matrix(0.44870523,0,0,0.44448771,0.39323043,-0.43533138)" />
    <text
       xml:space="preserve"
       style="font-size:8.33639px;line-height:125%;font-family:sans-serif;-inkscape-font-specification:'sans-serif, Normal';letter-spacing:0px;word-spacing:0px;fill:#ffffff;fill-opacity:1;stroke:none;stroke-width:0.446591px;stroke-linecap:butt;stroke-linejoin:miter;stroke-opacity:1"
       x="7.5052776"
       y="71.114746"
       id="text1023-1-6-9-7"
       transform="scale(1.004733,0.99528925)"><tspan
         sodipodi:role="line"
         x="7.5052776"
         y="71.114746"
         style="font-style:normal;font-variant:normal;font-weight:normal;font-stretch:normal;font-size:4.76366px;font-family:sans-serif;-inkscape-font-specification:'sans-serif, Normal';font-variant-ligatures:normal;font-variant-caps:normal;font-variant-numeric:normal;font-variant-east-asian:normal;fill:#ffffff;fill-opacity:1;stroke-width:0.446591px"
         id="tspan2875-2">Each block is loaded into memory only when it is</tspan></text>
    <text
       xml:space="preserve"
       style="font-size:8.33639px;line-height:125%;font-family:sans-serif;-inkscape-font-specification:'sans-serif, Normal';letter-spacing:0px;word-spacing:0px;fill:#ffffff;fill-opacity:1;stroke:none;stroke-width:0.446591px;stroke-linecap:butt;stroke-linejoin:miter;stroke-opacity:1"
       x="7.2397542"
       y="76.690735"
       id="text1023-1-6-9-8"
       transform="scale(1.004733,0.99528925)"><tspan
         sodipodi:role="line"
         x="7.2397542"
         y="76.690735"
         style="font-style:normal;font-variant:normal;font-weight:normal;font-stretch:normal;font-size:4.76366px;font-family:sans-serif;-inkscape-font-specification:'sans-serif, Normal';font-variant-ligatures:normal;font-variant-caps:normal;font-variant-numeric:normal;font-variant-east-asian:normal;fill:#ffffff;fill-opacity:1;stroke-width:0.446591px"
         id="tspan2875-5">being read, compressed, and written. This is for</tspan></text>
    <text
       xml:space="preserve"
       style="font-size:8.33639px;line-height:125%;font-family:sans-serif;-inkscape-font-specification:'sans-serif, Normal';letter-spacing:0px;word-spacing:0px;fill:#ffffff;fill-opacity:1;stroke:none;stroke-width:0.446591px;stroke-linecap:butt;stroke-linejoin:miter;stroke-opacity:1"
       x="7.3725162"
       y="82.133957"
       id="text1023-1-6-9-18"
       transform="scale(1.004733,0.99528925)"><tspan
         sodipodi:role="line"
         x="7.3725162"
         y="82.133957"
         style="font-style:normal;font-variant:normal;font-weight:normal;font-stretch:normal;font-size:4.76366px;font-family:sans-serif;-inkscape-font-specification:'sans-serif, Normal';font-variant-ligatures:normal;font-variant-caps:normal;font-variant-numeric:normal;font-variant-east-asian:normal;fill:#ffffff;fill-opacity:1;stroke-width:0.446591px"
         id="tspan2875-44">memory efficiency. (Extra blocks may be loaded</tspan></text>
    <text
       xml:space="preserve"
       style="font-size:8.33639px;line-height:125%;font-family:sans-serif;-inkscape-font-specification:'sans-serif, Normal';letter-spacing:0px;word-spacing:0px;fill:#ffffff;fill-opacity:1;stroke:none;stroke-width:0.446591px;stroke-linecap:butt;stroke-linejoin:miter;stroke-opacity:1"
       x="6.9281249"
       y="87.739845"
       id="text1023-1-6-9-18-4"
       transform="scale(1.004733,0.99528928)"><tspan
         sodipodi:role="line"
         x="6.9281249"
         y="87.739845"
         style="font-style:normal;font-variant:normal;font-weight:normal;font-stretch:normal;font-size:4.76366px;font-family:sans-serif;-inkscape-font-specification:'sans-serif, Normal';font-variant-ligatures:normal;font-variant-caps:normal;font-variant-numeric:normal;font-variant-east-asian:normal;fill:#ffffff;fill-opacity:1;stroke-width:0.446591px"
         id="tspan2875-44-7">ahead-of-time because most computers nowadays</tspan></text>
    <text
       xml:space="preserve"
       style="font-size:8.33639px;line-height:125%;font-family:sans-serif;-inkscape-font-specification:'sans-serif, Normal';letter-spacing:0px;word-spacing:0px;fill:#ffffff;fill-opacity:1;stroke:none;stroke-width:0.446591px;stroke-linecap:butt;stroke-linejoin:miter;stroke-opacity:1"
       x="6.6700878"
       y="92.972443"
       id="text1023-1-6-9-18-4-7"
       transform="scale(1.004733,0.99528929)"><tspan
         sodipodi:role="line"
         x="6.6700878"
         y="92.972443"
         style="font-style:normal;font-variant:normal;font-weight:normal;font-stretch:normal;font-size:4.76366px;font-family:sans-serif;-inkscape-font-specification:'sans-serif, Normal';font-variant-ligatures:normal;font-variant-caps:normal;font-variant-numeric:normal;font-variant-east-asian:normal;fill:#ffffff;fill-opacity:1;stroke-width:0.446591px"
         id="tspan2875-44-7-5">have beyond than 4GiB of RAM.)</tspan></text>
    <text
       xml:space="preserve"
       style="font-size:8.33639px;line-height:125%;font-family:sans-serif;-inkscape-font-specification:'sans-serif, Normal';letter-spacing:0px;word-spacing:0px;fill:#f3f3c1;fill-opacity:1;stroke:none;stroke-width:0.446591px;stroke-linecap:butt;stroke-linejoin:miter;stroke-opacity:1"
       x="6.899673"
       y="46.989887"
       id="text1023-1-6-9-49"
       transform="scale(1.004733,0.99528925)"><tspan
         sodipodi:role="line"
         x="6.899673"
         y="46.989887"
         style="font-style:normal;font-variant:normal;font-weight:normal;font-stretch:normal;font-size:4.76366px;font-family:sans-serif;-inkscape-font-specification:'sans-serif, Normal';font-variant-ligatures:normal;font-variant-caps:normal;font-variant-numeric:normal;font-variant-east-asian:normal;stroke-width:0.446591px"
         id="tspan2875-6">(len. 1026)</tspan></text>
    <text
       xml:space="preserve"
       style="font-size:8.33639px;line-height:125%;font-family:sans-serif;-inkscape-font-specification:'sans-serif, Normal';letter-spacing:0px;word-spacing:0px;fill:#f3f3c1;fill-opacity:1;stroke:none;stroke-width:0.446591px;stroke-linecap:butt;stroke-linejoin:miter;stroke-opacity:1"
       x="47.231033"
       y="47.154118"
       id="text1023-1-6-9-5"
       transform="scale(1.004733,0.99528925)"><tspan
         sodipodi:role="line"
         x="47.231033"
         y="47.154118"
         style="font-style:normal;font-variant:normal;font-weight:normal;font-stretch:normal;font-size:4.76366px;font-family:sans-serif;-inkscape-font-specification:'sans-serif, Normal';font-variant-ligatures:normal;font-variant-caps:normal;font-variant-numeric:normal;font-variant-east-asian:normal;stroke-width:0.446591px"
         id="tspan2875-61">(len. 1025)</tspan></text>
    <text
       xml:space="preserve"
       style="font-size:8.33639px;line-height:125%;font-family:sans-serif;-inkscape-font-specification:'sans-serif, Normal';letter-spacing:0px;word-spacing:0px;fill:#f3f3c1;fill-opacity:1;stroke:none;stroke-width:0.446591px;stroke-linecap:butt;stroke-linejoin:miter;stroke-opacity:1"
       x="93.653999"
       y="51.383949"
       id="text1023-1-6-9-9"
       transform="scale(1.004733,0.99528927)"><tspan
         sodipodi:role="line"
         x="93.653999"
         y="51.383949"
         style="font-style:normal;font-variant:normal;font-weight:normal;font-stretch:normal;font-size:4.76366px;font-family:sans-serif;-inkscape-font-specification:'sans-serif, Normal';font-variant-ligatures:normal;font-variant-caps:normal;font-variant-numeric:normal;font-variant-east-asian:normal;stroke-width:0.446591px"
         id="tspan2875-62">(len. 1026)</tspan></text>
    <text
       xml:space="preserve"
       style="font-size:18.6667px;line-height:125%;font-family:sans-serif;-inkscape-font-specification:'sans-serif, Normal';letter-spacing:0px;word-spacing:0px;fill:#ffffff;fill-opacity:1;stroke:none;stroke-width:1px;stroke-linecap:butt;stroke-linejoin:miter;stroke-opacity:1"
       x="18.431202"
       y="46.672562"
       id="text1023-1-6-9-3"
       transform="matrix(0.44870523,0,0,0.44448771,-0.69402381,40.983478)"><tspan
         sodipodi:role="line"
         x="18.431202"
         y="46.672562"
         style="font-style:normal;font-variant:normal;font-weight:normal;font-stretch:normal;font-size:10.6667px;font-family:sans-serif;-inkscape-font-specification:'sans-serif, Normal';font-variant-ligatures:normal;font-variant-caps:normal;font-variant-numeric:normal;font-variant-east-asian:normal;fill:#ffffff;fill-opacity:1"
         id="tspan2875-92">Each block has one extra byte for null terminator.</tspan></text>
  </g>
  <metadata
     id="metadata134">
    <rdf:RDF>
      <cc:Work
         rdf:about="">
        <cc:license
           rdf:resource="http://creativecommons.org/publicdomain/zero/1.0/" />
        <dc:title>Hex-Zip File Splitting Demonstration</dc:title>
        <dc:date>11/24/2022</dc:date>
        <dc:creator>
          <cc:Agent>
            <dc:title>HackerDaGreat57 (Akshat Singh)</dc:title>
          </cc:Agent>
        </dc:creator>
        <dc:identifier>HZDMS1</dc:identifier>
        <dc:source>My brain</dc:source>
        <dc:language>English</dc:language>
        <dc:subject>
          <rdf:Bag>
            <rdf:li>3dOS</rdf:li>
            <rdf:li>Hex-Zip</rdf:li>
            <rdf:li>hex zip</rdf:li>
            <rdf:li>hz</rdf:li>
            <rdf:li>HZ</rdf:li>
            <rdf:li>hex</rdf:li>
            <rdf:li>zip</rdf:li>
            <rdf:li>file</rdf:li>
            <rdf:li>compression</rdf:li>
            <rdf:li>file compression</rdf:li>
          </rdf:Bag>
        </dc:subject>
        <dc:coverage>Demonstrates file splitting.</dc:coverage>
        <dc:description>This image shows how Hex-Zip splits input files before beginning compression.</dc:description>
        <dc:contributor>
          <cc:Agent>
            <dc:title>1. HackerDaGreat57</dc:title>
          </cc:Agent>
        </dc:contributor>
      </cc:Work>
      <cc:License
         rdf:about="http://creativecommons.org/publicdomain/zero/1.0/">
        <cc:permits
           rdf:resource="http://creativecommons.org/ns#Reproduction" />
        <cc:permits
           rdf:resource="http://creativecommons.org/ns#Distribution" />
        <cc:permits
           rdf:resource="http://creativecommons.org/ns#DerivativeWorks" />
      </cc:License>
    </rdf:RDF>
  </metadata>
</svg>
