<?xml version="1.0" encoding="UTF-8" standalone="no"?>
<!-- Created with Inkscape (http://www.inkscape.org/) -->

<svg
   width="144.2735748291016mm"
   height="90.98000335693359mm"
   viewBox="0 0 144.2735748291013 90.98000335693379"
   version="1.1"
   id="svg5"
   inkscape:version="1.1.2 (0a00cf5339, 2022-02-04)"
   sodipodi:docname="hzdms1.svg"
   xmlns:inkscape="http://www.inkscape.org/namespaces/inkscape"
   xmlns:sodipodi="http://sodipodi.sourceforge.net/DTD/sodipodi-0.dtd"
   xmlns:xlink="http://www.w3.org/1999/xlink"
   xmlns="http://www.w3.org/2000/svg"
   xmlns:svg="http://www.w3.org/2000/svg"
   xmlns:rdf="http://www.w3.org/1999/02/22-rdf-syntax-ns#"
   xmlns:cc="http://creativecommons.org/ns#"
   xmlns:dc="http://purl.org/dc/elements/1.1/">
  <title
     id="title691">Hex-Zip File Splitting Demonstration</title>
  <sodipodi:namedview
     id="namedview7"
     pagecolor="#505050"
     bordercolor="#eee"
     borderopacity="1"
     inkscape:showpageshadow="false"
     inkscape:pageopacity="0"
     inkscape:pagecheckerboard="0"
     inkscape:deskcolor="#505050"
     inkscape:document-units="mm"
     showgrid="false"
     inkscape:zoom="1"
     inkscape:cx="268"
     inkscape:cy="186.5"
     inkscape:window-width="1366"
     inkscape:window-height="704"
     inkscape:window-x="0"
     inkscape:window-y="0"
     inkscape:window-maximized="1"
     inkscape:current-layer="layer1"
     inkscape:pageshadow="2" />
  <defs
     id="defs2">
    <linearGradient
       inkscape:collect="always"
       id="linearGradient944">
      <stop
         style="stop-color:black;stop-opacity:1;"
         offset="0"
         id="stop940" />
      <stop
         style="stop-color:black;stop-opacity:0;"
         offset="1"
         id="stop942" />
    </linearGradient>
    <linearGradient
       inkscape:collect="always"
       xlink:href="#linearGradient944"
       id="linearGradient946"
       x1="104.0741119384766"
       y1="8.477476119995117"
       x2="410.2638244628906"
       y2="8.477476119995117"
       gradientUnits="userSpaceOnUse" />
  </defs>
  <g
     inkscape:label="Layer 1"
     inkscape:groupmode="layer"
     id="layer1">
    <rect
       id="rect429"
       width="169.69144"
       height="119.96732"
       x="-12.963819"
       y="-11.918053"
       style="fill:#111111;fill-opacity:1;stroke-width:0.264583"
       ry="4.4948163" />
    <text
       xml:space="preserve"
       style="font-size:16.5886px;line-height:125%;font-family:sans-serif;-inkscape-font-specification:'sans-serif, Normal';letter-spacing:0px;word-spacing:0px;fill:#ffffff;fill-opacity:1;stroke:none;stroke-width:1px;stroke-linecap:butt;stroke-linejoin:miter;stroke-opacity:1;font-weight:normal;font-style:normal;font-stretch:normal;font-variant:normal;font-variant-ligatures:normal;font-variant-caps:normal;font-variant-numeric:normal;font-variant-east-asian:normal"
       x="102.2634429931641"
       y="13.37748527526855"
       id="text753"
       transform="matrix(0.4487052306144358,0,0,0.4444877125185061,-42.4249438597635,2.20739217930819)"><tspan
         sodipodi:role="line"
         x="102.2634429931641"
         y="13.37748527526855"
         id="tspan755"
         style="fill:white;fill-opacity:1;-inkscape-font-specification:'sans-serif, Normal';font-family:sans-serif;font-weight:normal;font-style:normal;font-stretch:normal;font-variant:normal;font-size:16.58861275px;font-variant-ligatures:normal;font-variant-caps:normal;font-variant-numeric:normal;font-variant-east-asian:normal">Hex-Zip Splitting Demo: ~2.4KiB file</tspan></text>
    <rect
       style="fill:#133c19;fill-opacity:1;stroke:none;stroke-width:0.064;stroke-linecap:square;stroke-linejoin:round"
       id="rect1000"
       width="41.32156753540039"
       height="37.75423812866211"
       x="12.18837547302246"
       y="29.72774505615234"
       transform="matrix(0.4487052306144358,0,0,0.4444877125185061,15.4662949008873,-0.435331380613377)"
       ry="4.817165851593018" />
    <rect
       style="fill:#133c19;fill-opacity:1;stroke:none;stroke-width:0.064;stroke-linecap:square;stroke-linejoin:round"
       id="rect1002"
       width="44.88889694213867"
       height="38.051513671875"
       x="54.99633026123047"
       y="30.91685485839844"
       transform="matrix(0.4487052306144358,0,0,0.4444877125185061,23.46969196457174,-1.492420804582005)"
       ry="4.817165851593018" />
    <rect
       style="fill:#133c19;fill-opacity:1;stroke:none;stroke-width:0.064;stroke-linecap:square;stroke-linejoin:round"
       id="rect1004"
       width="42.51067733764648"
       height="41.02428817749023"
       x="104.9389419555664"
       y="27.05224800109863"
       transform="matrix(0.972717625202366,0,0,0.4444877125185061,-25.91723635050938,0.2253495093670151)"
       ry="4.817165851593018" />
    <text
       xml:space="preserve"
       style="font-size:17.8768px;line-height:125%;font-family:sans-serif;-inkscape-font-specification:'sans-serif, Normal';letter-spacing:0px;word-spacing:0px;fill:#f3f3c1;fill-opacity:1;stroke:none;stroke-width:1px;stroke-linecap:butt;stroke-linejoin:miter;stroke-opacity:1;font-weight:normal;font-style:normal;font-stretch:normal;font-variant:normal;font-variant-ligatures:normal;font-variant-caps:normal;font-variant-numeric:normal;font-variant-east-asian:normal"
       x="18.43120193481445"
       y="46.67256164550781"
       id="text1023"
       transform="matrix(0.4487052306144358,0,0,0.4444877125185061,13.33205568390479,0.0932133313709386)"><tspan
         sodipodi:role="line"
         id="tspan1021"
         x="18.43120193481445"
         y="46.67256164550781">1KiB</tspan></text>
    <text
       xml:space="preserve"
       style="font-size:18.6667px;line-height:125%;font-family:sans-serif;-inkscape-font-specification:'sans-serif, Normal';letter-spacing:0px;word-spacing:0px;fill:#f3f3c1;fill-opacity:1;stroke:none;stroke-width:1px;stroke-linecap:butt;stroke-linejoin:miter;stroke-opacity:1"
       x="18.43120193481445"
       y="46.67256164550781"
       id="text1023-3"
       transform="matrix(0.4487052306144358,0,0,0.4444877125185061,40.29028946728117,-1.04093694105996)"><tspan
         sodipodi:role="line"
         id="tspan1021-6"
         x="18.43120193481445"
         y="46.67256164550781">1KiB</tspan></text>
    <text
       xml:space="preserve"
       style="font-size:8.33639px;line-height:125%;font-family:sans-serif;-inkscape-font-specification:'sans-serif, Normal';letter-spacing:0px;word-spacing:0px;fill:#f3f3c1;fill-opacity:1;stroke:none;stroke-width:0.446591px;stroke-linecap:butt;stroke-linejoin:miter;stroke-opacity:1"
       x="75.888062"
       y="19.144241"
       id="text1023-1"
       transform="scale(1.004733,0.99528927)"><tspan
         sodipodi:role="line"
         x="75.888062"
         y="19.144241"
         style="font-style:normal;font-variant:normal;font-weight:normal;font-stretch:normal;font-size:4.76366px;font-family:sans-serif;-inkscape-font-specification:'sans-serif, Normal';font-variant-ligatures:normal;font-variant-caps:normal;font-variant-numeric:normal;font-variant-east-asian:normal;stroke-width:0.446591px"
         id="tspan1746">0.4KiB</tspan></text>
    <text
       xml:space="preserve"
       style="font-size:18.6667px;line-height:125%;font-family:sans-serif;-inkscape-font-specification:'sans-serif, Normal';letter-spacing:0px;word-spacing:0px;fill:#f3f3c1;fill-opacity:1;stroke:none;stroke-width:1px;stroke-linecap:butt;stroke-linejoin:miter;stroke-opacity:1"
       x="18.43120193481445"
       y="46.67256164550781"
       id="text1023-1-42"
       transform="matrix(0.4487052306144358,0,0,0.4444877125185061,16.8485014010441,5.506976131356256)"><tspan
         sodipodi:role="line"
         x="18.43120193481445"
         y="46.67256164550781"
         style="font-style:normal;font-variant:normal;font-weight:normal;font-stretch:normal;font-size:10.6667px;font-family:sans-serif;-inkscape-font-specification:'sans-serif, Normal';font-variant-ligatures:normal;font-variant-caps:normal;font-variant-numeric:normal;font-variant-east-asian:normal"
         id="tspan1140-6">Data</tspan></text>
    <rect
       style="fill:#430900;fill-opacity:1;stroke:none;stroke-width:0.0675745;stroke-linecap:square;stroke-linejoin:round;stroke-dasharray:none;paint-order:stroke fill markers"
       id="rect1196"
       width="59.1582145690918"
       height="44.88889694213867"
       x="138.8285675048828"
       y="26.45769309997559"
       transform="matrix(0.4428241839169265,0,0,0.4071899541924622,29.95117644436025,1.468419105026256)"
       ry="4.817165851593018" />
    <text
       xml:space="preserve"
       style="font-size:9.9775px;line-height:125%;font-family:sans-serif;-inkscape-font-specification:'sans-serif, Normal';letter-spacing:0px;word-spacing:0px;fill:#f3f3c1;fill-opacity:1;stroke:none;stroke-width:1px;stroke-linecap:butt;stroke-linejoin:miter;stroke-opacity:1;font-weight:normal;font-style:normal;font-stretch:normal;font-variant:normal;font-variant-ligatures:normal;font-variant-caps:normal;font-variant-numeric:normal;font-variant-east-asian:normal"
       x="18.43120193481445"
       y="46.67256164550781"
       id="text1023-1-9"
       transform="matrix(0.4487052306144358,0,0,0.4444877125185061,84.42767584055224,-3.903139809832565)"><tspan
         sodipodi:role="line"
         x="18.43120193481445"
         y="46.67256164550781"
         style="font-style:normal;font-variant:normal;font-weight:normal;font-stretch:normal;font-size:9.97749762px;font-family:sans-serif;-inkscape-font-specification:'sans-serif, Normal';font-variant-ligatures:normal;font-variant-caps:normal;font-variant-numeric:normal;font-variant-east-asian:normal"
         id="tspan1269">Rest of the</tspan></text>
    <text
       xml:space="preserve"
       style="font-size:9.97742px;line-height:125%;font-family:sans-serif;-inkscape-font-specification:'sans-serif, Normal';letter-spacing:0px;word-spacing:0px;fill:#f3f3c1;fill-opacity:1;stroke:none;stroke-width:1px;stroke-linecap:butt;stroke-linejoin:miter;stroke-opacity:1;font-weight:normal;font-style:normal;font-stretch:normal;font-variant:normal;font-variant-ligatures:normal;font-variant-caps:normal;font-variant-numeric:normal;font-variant-east-asian:normal"
       x="18.43120193481445"
       y="46.67256164550781"
       id="text1023-1-8"
       transform="matrix(0.4487052306144358,0,0,0.4444877125185061,84.16089593842939,0.7216264200301853)"><tspan
         sodipodi:role="line"
         x="18.43120193481445"
         y="46.67256164550781"
         style="font-style:normal;font-variant:normal;font-weight:normal;font-stretch:normal;font-size:9.97741862px;font-family:sans-serif;-inkscape-font-specification:'sans-serif, Normal';font-variant-ligatures:normal;font-variant-caps:normal;font-variant-numeric:normal;font-variant-east-asian:normal"
         id="tspan1140-1">block filled</tspan></text>
    <text
       xml:space="preserve"
       style="font-size:18.6667px;line-height:125%;font-family:sans-serif;-inkscape-font-specification:'sans-serif, Normal';letter-spacing:0px;word-spacing:0px;fill:#f3f3c1;fill-opacity:1;stroke:none;stroke-width:1px;stroke-linecap:butt;stroke-linejoin:miter;stroke-opacity:1"
       x="18.43120193481445"
       y="46.67256164550781"
       id="text1023-1-4"
       transform="matrix(0.4487052306144358,0,0,0.4444877125185061,84.16089593842939,5.478528827888986)"><tspan
         sodipodi:role="line"
         x="18.43120193481445"
         y="46.67256164550781"
         style="font-style:normal;font-variant:normal;font-weight:normal;font-stretch:normal;font-size:10.6667px;font-family:sans-serif;-inkscape-font-specification:'sans-serif, Normal';font-variant-ligatures:normal;font-variant-caps:normal;font-variant-numeric:normal;font-variant-east-asian:normal"
         id="tspan1140-13">with 0s</tspan></text>
    <rect
       style="fill:#433e00;fill-opacity:1;stroke:none;stroke-width:0.064252;stroke-linecap:square;stroke-linejoin:round;stroke-dasharray:none;paint-order:stroke fill markers"
       id="rect1387"
       width="40.72701263427734"
       height="36.26784896850586"
       x="9.810155868530273"
       y="32.10596466064453"
       transform="matrix(0.4487052306144358,0,0,0.4444877125185061,-0.673889177542996,-1.36028462658592)"
       ry="4.817165851593018" />
    <rect
       style="fill:#433e00;fill-opacity:1;stroke:none;stroke-width:0.064252;stroke-linecap:square;stroke-linejoin:round;stroke-dasharray:none;paint-order:stroke fill markers"
       id="rect1387-9"
       width="40.72701263427734"
       height="36.26784896850586"
       x="9.810155868530273"
       y="32.10596466064453"
       transform="matrix(0.5142096427642929,0,0,0.5027811847829671,111.9982657390862,-4.024669176893024)"
       ry="4.817165851593018" />
    <text
       xml:space="preserve"
       style="font-size:18.6667px;line-height:125%;font-family:sans-serif;-inkscape-font-specification:'sans-serif, Normal';letter-spacing:0px;word-spacing:0px;fill:none;stroke:black;stroke-width:1px;stroke-linecap:butt;stroke-linejoin:miter;stroke-opacity:1"
       x="24.97130584716797"
       y="42.80795288085938"
       id="text1569"
       transform="scale(0.2645833333333333)"><tspan
         sodipodi:role="line"
         id="tspan1567"
         x="24.97130584716797"
         y="42.80795288085938" /></text>
    <text
       xml:space="preserve"
       style="font-size:18.6667px;line-height:125%;font-family:sans-serif;-inkscape-font-specification:'sans-serif, Normal';letter-spacing:0px;word-spacing:0px;fill:#f3f3c1;fill-opacity:1;stroke:none;stroke-width:1px;stroke-linecap:butt;stroke-linejoin:miter;stroke-opacity:1"
       x="18.43120193481445"
       y="46.67256164550781"
       id="text1023-3-5"
       transform="matrix(0.4487052306144358,0,0,0.4444877125185061,2.260791259293767,-0.0205668272234902)"><tspan
         sodipodi:role="line"
         id="tspan1021-6-0"
         x="18.43120193481445"
         y="46.67256164550781">S</tspan></text>
    <text
       xml:space="preserve"
       style="font-size:18.6667px;line-height:125%;font-family:sans-serif;-inkscape-font-specification:'sans-serif, Normal';letter-spacing:0px;word-spacing:0px;fill:#f3f3c1;fill-opacity:1;stroke:none;stroke-width:1px;stroke-linecap:butt;stroke-linejoin:miter;stroke-opacity:1"
       x="18.43120193481445"
       y="46.67256164550781"
       id="text1023-1-6"
       transform="matrix(0.4487052306144358,0,0,0.4444877125185061,-2.626431453921411,5.110567597368009)"><tspan
         sodipodi:role="line"
         x="18.43120193481445"
         y="46.67256164550781"
         style="font-style:normal;font-variant:normal;font-weight:normal;font-stretch:normal;font-size:10.6667px;font-family:sans-serif;-inkscape-font-specification:'sans-serif, Normal';font-variant-ligatures:normal;font-variant-caps:normal;font-variant-numeric:normal;font-variant-east-asian:normal"
         id="tspan1140-0">(Start)</tspan></text>
    <text
       xml:space="preserve"
       style="font-size:18.6667px;line-height:125%;font-family:sans-serif;-inkscape-font-specification:'sans-serif, Normal';letter-spacing:0px;word-spacing:0px;fill:#f3f3c1;fill-opacity:1;stroke:none;stroke-width:1px;stroke-linecap:butt;stroke-linejoin:miter;stroke-opacity:1"
       x="18.43120193481445"
       y="46.67256164550781"
       id="text1023-1-6-9"
       transform="matrix(0.4487052306144358,0,0,0.4444877125185061,0.1209625446923626,21.38754047117739)"><tspan
         sodipodi:role="line"
         x="18.43120193481445"
         y="46.67256164550781"
         style="font-style:normal;font-variant:normal;font-weight:normal;font-stretch:normal;font-size:10.6667px;font-family:sans-serif;-inkscape-font-specification:'sans-serif, Normal';font-variant-ligatures:normal;font-variant-caps:normal;font-variant-numeric:normal;font-variant-east-asian:normal"
         id="tspan2875">One Block</tspan></text>
    <text
       xml:space="preserve"
       style="font-size:18.6667px;line-height:125%;font-family:sans-serif;-inkscape-font-specification:'sans-serif, Normal';letter-spacing:0px;word-spacing:0px;fill:#f3f3c1;fill-opacity:1;stroke:none;stroke-width:1px;stroke-linecap:butt;stroke-linejoin:miter;stroke-opacity:1"
       x="18.43120193481445"
       y="46.67256164550781"
       id="text1023-1-6-9-1"
       transform="matrix(0.4487052306144358,0,0,0.4444877125185061,39.45635145930556,21.29518774569087)"><tspan
         sodipodi:role="line"
         x="18.43120193481445"
         y="46.67256164550781"
         style="font-style:normal;font-variant:normal;font-weight:normal;font-stretch:normal;font-size:10.6667px;font-family:sans-serif;-inkscape-font-specification:'sans-serif, Normal';font-variant-ligatures:normal;font-variant-caps:normal;font-variant-numeric:normal;font-variant-east-asian:normal"
         id="tspan2875-4">One Block</tspan></text>
    <text
       xml:space="preserve"
       style="font-size:18.6667px;line-height:125%;font-family:sans-serif;-inkscape-font-specification:'sans-serif, Normal';letter-spacing:0px;word-spacing:0px;fill:#f3f3c1;fill-opacity:1;stroke:none;stroke-width:1px;stroke-linecap:butt;stroke-linejoin:miter;stroke-opacity:1"
       x="18.43120193481445"
       y="46.67256164550781"
       id="text1023-1-6-9-4"
       transform="matrix(0.4487052306144358,0,0,0.4444877125185061,87.076563988228,25.39140926356929)"><tspan
         sodipodi:role="line"
         x="18.43120193481445"
         y="46.67256164550781"
         style="font-style:normal;font-variant:normal;font-weight:normal;font-stretch:normal;font-size:10.6667px;font-family:sans-serif;-inkscape-font-specification:'sans-serif, Normal';font-variant-ligatures:normal;font-variant-caps:normal;font-variant-numeric:normal;font-variant-east-asian:normal"
         id="tspan2875-9">One Block</tspan></text>
    <text
       xml:space="preserve"
       style="font-size:8.33639px;line-height:125%;font-family:sans-serif;-inkscape-font-specification:'sans-serif, Normal';letter-spacing:0px;word-spacing:0px;fill:#f3f3c1;fill-opacity:1;stroke:none;stroke-width:0.446591px;stroke-linecap:butt;stroke-linejoin:miter;stroke-opacity:1"
       x="124.74541"
       y="20.892637"
       id="text1023-3-5-5"
       transform="scale(1.004733,0.99528925)"><tspan
         sodipodi:role="line"
         id="tspan1021-6-0-1"
         x="124.74541"
         y="20.892637"
         style="stroke-width:0.446591px">E</tspan></text>
    <text
       xml:space="preserve"
       style="font-size:8.33639px;line-height:125%;font-family:sans-serif;-inkscape-font-specification:'sans-serif, Normal';letter-spacing:0px;word-spacing:0px;fill:#f3f3c1;fill-opacity:1;stroke:none;stroke-width:0.446591px;stroke-linecap:butt;stroke-linejoin:miter;stroke-opacity:1"
       x="121.27256"
       y="26.38286"
       id="text1023-1-6-3"
       transform="scale(1.004733,0.99528925)"><tspan
         sodipodi:role="line"
         x="121.27256"
         y="26.38286"
         style="font-style:normal;font-variant:normal;font-weight:normal;font-stretch:normal;font-size:4.76366px;font-family:sans-serif;-inkscape-font-specification:'sans-serif, Normal';font-variant-ligatures:normal;font-variant-caps:normal;font-variant-numeric:normal;font-variant-east-asian:normal;stroke-width:0.446591px"
         id="tspan1140-0-5">(End)</tspan></text>
    <text
       xml:space="preserve"
       style="font-size:18.6667px;line-height:125%;font-family:sans-serif;-inkscape-font-specification:'sans-serif, Normal';letter-spacing:0px;word-spacing:0px;fill:#f3f3c1;fill-opacity:1;stroke:none;stroke-width:1px;stroke-linecap:butt;stroke-linejoin:miter;stroke-opacity:1"
       x="18.43120193481445"
       y="46.67256164550781"
       id="text1023-1-2"
       transform="matrix(0.4487052306144358,0,0,0.4444877125185061,44.19344136863256,4.978431419371928)"><tspan
         sodipodi:role="line"
         x="18.43120193481445"
         y="46.67256164550781"
         style="font-style:normal;font-variant:normal;font-weight:normal;font-stretch:normal;font-size:10.6667px;font-family:sans-serif;-inkscape-font-specification:'sans-serif, Normal';font-variant-ligatures:normal;font-variant-caps:normal;font-variant-numeric:normal;font-variant-east-asian:normal"
         id="tspan1140-4">Data</tspan></text>
    <text
       xml:space="preserve"
       style="font-size:8.33639px;line-height:125%;font-family:sans-serif;-inkscape-font-specification:'sans-serif, Normal';letter-spacing:0px;word-spacing:0px;fill:#f3f3c1;fill-opacity:1;stroke:none;stroke-width:0.446591px;stroke-linecap:butt;stroke-linejoin:miter;stroke-opacity:1"
       x="77.846329"
       y="25.521408"
       id="text1023-1-0"
       transform="scale(1.004733,0.99528925)"><tspan
         sodipodi:role="line"
         x="77.846329"
         y="25.521408"
         style="font-style:normal;font-variant:normal;font-weight:normal;font-stretch:normal;font-size:4.76366px;font-family:sans-serif;-inkscape-font-specification:'sans-serif, Normal';font-variant-ligatures:normal;font-variant-caps:normal;font-variant-numeric:normal;font-variant-east-asian:normal;stroke-width:0.446591px"
         id="tspan1140">Data</tspan></text>
    <path
       style="fill:none;stroke:white;stroke-width:1px;stroke-linecap:butt;stroke-linejoin:miter;stroke-opacity:1"
       d="m 2.675497136302034,61.83371159453589 c 9e-16,1.09001735182676 0,2.18003470365348 0,3.27005205548024 c 0,0.19818497305943 -0.06267159128869,0.40654014531219 0,0.59455491917825 c 0.04431550718798,0.13294652156394 0.252961952401133,0.16433093802516 0.297277459589114,0.29727745958911 c 0.06267159128868,0.18801477386603 0,0.39636994611881 0,0.59455491917821 c 0.09909248652971,0.29727745958911 0.180899236204653,0.6008868203062 0.297277459589115,0.89183237876736 c 0.0822918309376,0.20572957734399 0.227208490399324,0.38434801160885 0.297277459589115,0.59455491917824 c 0.03133579564434,0.094007386933 -0.08244993258371,0.24231083786664 0,0.29727745958911 c 0.410827345062997,0.27388489670865 0.944822325321778,0.10597989310885 1.189109838356462,0.59455491917822 c 0.116094069359633,0.23218813871928 0.334801768344024,1.22663414711137 0.59455491917823,1.48638729794557 c 0.156678978221711,0.15667897822172 0.404553749612945,0.18327675784995 0.59455491917823,0.29727745958911 c 0.306367680302696,0.18382060818162 0.572268711838431,0.43477308571379 0.891832378767341,0.59455491917825 c 0.08863101437596,0.044315507188 0.198184973059412,0 0.297277459589119,0 c 0.297277459589111,0.0990924865297 0.623130147901366,0.13605612106953 0.89183237876734,0.29727745958911 c 0.240334581568863,0.14420074894132 0.343868554023494,0.46921173660085 0.594554919178231,0.59455491917821 c 0.177262028751922,0.088631014376 0.396369946118819,0 0.594554919178229,0 c 0.792739892237639,0 1.585479784475281,0 2.37821967671292,0 c 1.38729481141587,0 2.77458962283174,0 4.16188443424761,0 c 0.59455491917822,0 1.18910983835646,0 1.78366475753469,0 c 0.0990924865297,0 0.20327007265608,0.0313357956444 0.29727745958911,0 c 0.21020690756937,-0.0700689691898 0.39636994611882,-0.1981849730594 0.59455491917823,-0.2972774595891 c 0.39636994611882,0 0.79813293191518,0.0651628177402 1.18910983835646,0 c 0.21856273510882,-0.0364271225181 0.37959313448545,-0.24353701341593 0.59455491917823,-0.29727745958911 c 0.19226766525509,-0.0480669163138 0.39636994611882,0 0.59455491917823,0 c 0.39636994611882,0 0.79273989223764,0 1.18910983835646,0 c 0.29727745958911,0 0.59754270817022,0.0420413815139 0.89183237876734,0 c 0.40446246546672,-0.0577803522095 0.78303996480496,-0.25215858475005 1.18910983835646,-0.29727745958911 c 0.77711541878931,-0.0863461576432 1.84485689235842,0 2.67549713630203,0 c 0.20151106706738,0 2.42609024046807,0.0498813791668 2.67549713630203,0 c 0.21727464990988,-0.043454929982 0.37728026926836,-0.25382252960715 0.59455491917823,-0.29727745958914 c 0.29150453219157,-0.0583009064383 0.59455491917823,0 0.89183237876734,0 c 0.29727745958913,0 0.59455491917823,0 0.89183237876734,0 c 0.79273989223766,0 1.5854797844753,0 2.37821967671294,0 c 0.94408070549276,0 2.10025302289291,-0.13898332690998 2.97277459589114,0.29727745958914 c 0.088631014376,0.044315507188 -0.0700689691898,0.22720849039932 0,0.29727745958911 c 0.15667897822172,0.15667897822171 0.43787594095652,0.14059848136741 0.59455491917823,0.29727745958911 c 0.15667897822172,0.15667897822171 0.14059848136741,0.43787594095652 0.29727745958911,0.59455491917824 c 0.91246382414392,0.91246382414391 0.24717899282352,-0.17368796317736 1.18910983835645,0.29727745958911 c 0.17726202875195,0.088631014376 -0.14013793837956,0.45441698079864 0,0.59455491917824 c 0.2526372612327,0.25263726123269 0.66863943235699,0.31556373616525 0.89183237876735,0.59455491917822 c 0.19575316350199,0.24469145437747 0.18089923620465,0.60088682030617 0.29727745958911,0.89183237876733 c 0.0990924865297,0.19818497305943 0.19818497305939,0.39636994611881 0.29727745958914,0.59455491917824 c 0,0.0990924865297 -0.0313357956444,0.20327007265608 0,0.29727745958913 c 0.0700689691898,0.21020690756936 0.22720849039931,0.38434801160885 0.29727745958909,0.59455491917821 c 0.0313357956443,0.094007386933 -0.0700689691898,0.22720849039935 0,0.29727745958914 c 0.15667897822172,0.15667897822169 0.47164581651325,0.11291380559166 0.59455491917825,0.29727745958911 c 0.02028893672,0.03043340508 0,1.01989966344121 0,1.18910983835646 c 0,1.09001735182677 0,2.18003470365349 0,3.27005205548026 c 0,0.79273989223765 0,1.58547978447525 0,2.37821967671292 c 0,0.18641923778584 -0.0367208440224,1.1523889943341 0,1.18910983835646 c 0.0700689691898,0.0700689691898 0.22720849039931,-0.0700689691898 0.29727745958909,0 c 0.0700689691898,0.0700689691898 0,0.39636994611881 0,0.29727745958911 c 0,-1.48638729794557 0,-2.97277459589117 0,-4.45916189383672 c 0,-0.59455491917824 0,-1.18910983835653 0,-1.78366475753468 c 0,-0.0990924865297 -0.0313357956443,-0.2032700726561 0,-0.29727745958913 c 0.0700689691898,-0.21020690756937 0.25382252960717,-0.37728026926834 0.29727745958913,-0.59455491917822 c 0.0639005104876,-0.3195025524379 0,-1.61184688131287 0,-2.08094221712382 c 0,-0.0990924865297 -0.0700689691898,-0.22720849039932 0,-0.2972774595891 c 0.0700689691898,-0.0700689691898 0.20864644521317,0.044315507188 0.29727745958909,0 c 0.12534318257736,-0.0626715912887 0.17193427701176,-0.23460586830043 0.29727745958914,-0.29727745958913 c 0.088631014376,-0.044315507188 0.20864644521314,0.044315507188 0.29727745958911,0 c 0.12534318257737,-0.0626715912887 0.16433093802519,-0.25296195240114 0.29727745958912,-0.29727745958911 c 0.18801477386605,-0.0626715912887 0.4296550540108,0.10993324344494 0.59455491917822,0 c 0.18436365399746,-0.12290910266498 0.14059848136742,-0.43787594095652 0.29727745958912,-0.59455491917824 c 0.0700689691898,-0.0700689691898 0.20864644521317,0.044315507188 0.29727745958914,0 c 0.12534318257736,-0.0626715912887 0.17193427701172,-0.23460586830042 0.29727745958909,-0.29727745958911 c 0.088631014376,-0.044315507188 0.19818497305941,0 0.29727745958913,0 c 0.0990924865297,0 0.1981849730594,0 0.29727745958912,0 c 0.79273989223766,0 1.58547978447524,0 2.3782196767129,0 c 0.99092486529702,0 1.98184973059411,0 2.97277459589116,0 c 0.39636994611881,0 0.81308029062435,-0.12534318257737 1.18910983835646,0 c 0.26589304312788,0.088631014376 0.36135129342496,0.43908583534272 0.59455491917822,0.59455491917822 c 0.0824499325837,0.0549666217225 0.20864644521317,-0.044315507188 0.29727745958912,0 c 0.12534318257736,0.0626715912887 0.16716265029497,0.24523153587147 0.29727745958911,0.29727745958913 c 0.39606312383949,0.82658544021147 0.99619900946123,0.174730387468 1.48638729794559,0.29727745958911 c 0.30400187130445,0.0760004678261 0.58455962210493,0.23582290825662 0.89183237876734,0.29727745958913 c 0.38867270958877,0.0777345419177 0.79273989223762,0 1.18910983835646,0 c 1.09001735182678,0 2.18003470365349,0 3.27005205548025,0 c 2.97277459589113,0 5.94554919178231,0 8.91832378767342,0 c 1.68457227100501,0 3.36914454200998,0 5.05371681301496,0 c 0.79273989223765,0 1.5854797844753,0 2.37821967671292,0 c 0.29727745958911,0 0.59754270817022,0.0420413815139 0.89183237876736,0 c 0.40446246546669,-0.0577803522095 0.78369606824641,-0.24660073832537 1.18910983835644,-0.29727745958913 c 0.68829097492383,-0.0860363718655 1.38729481141588,0 2.08094221712381,0 c 1.3632164125774,0 -0.31335795644323,0.0626715912886 1.48638729794557,-0.29727745958911 c 0.1943363547944,-0.0388672709589 0.39636994611882,0 0.59455491917825,0 c 0.0990924865297,0 0.25296195240112,0.088631014376 0.29727745958911,0 c 0.0886310143759,-0.17726202875193 -0.14013793837958,-0.45441698079865 0,-0.59455491917824 c 0.2215775359399,-0.2215775359399 0.60088682030617,-0.18089923620465 0.89183237876733,-0.29727745958911 c 0.205729577344,-0.0822918309376 0.39636994611881,-0.19818497305941 0.59455491917824,-0.29727745958911 c 0.29727745958913,-0.0990924865297 0.59842618112594,-0.18725013547359 0.89183237876733,-0.29727745958911 c 0.49965275017925,-0.18736978131722 0.98673454776635,-0.40718513786102 1.4863872979456,-0.59455491917824 c 0.29340619764139,-0.11002732411552 0.62313014790136,-0.13605612106953 0.89183237876733,-0.29727745958911 c 0.24033458156886,-0.14420074894133 0.3438685540235,-0.46921173660087 0.59455491917824,-0.59455491917825 c 0.3654350339777,-0.18271751698886 0.80976324145584,-0.14553882082886 1.18910983835644,-0.2972774595891 c 0.19708900172945,-0.0788356006918 0.92651194362168,-1.01404457519995 1.18910983835646,-1.18910983835647 c 0.18436365399745,-0.12290910266495 0.47164581651329,-0.11291380559166 0.59455491917822,-0.29727745958911 c 0.0585301987329,-0.0877952980994 -0.036953647743,-1.33857270697362 0,-1.48638729794557 c 0.38268812883557,-1.53075251534223 0.30460453663908,0.54326537982854 0.59455491917824,-1.48638729794557 c 0.0840827630278,-0.58857934119426 0,-1.18910983835646 0,-1.78366475753468 c 0,-1.4863872979456 0,-2.97277459589115 0,-4.45916189383672"
       id="path2846"
       transform="matrix(0.4487052306144358,0,0,0.4444877125185061,0.3932304309482641,-0.4353313806133737)" />
    <path
       style="fill:none;stroke:white;stroke-width:1px;stroke-linecap:butt;stroke-linejoin:miter;stroke-opacity:1"
       d="m 98.6961165835861,60.94187921576855 c 0.1819762755286,0.0468159712101 -0.10893253388801,1.7541446154598 0,2.08094221712379 c 0.0700689691898,0.21020690756938 0.17436835692418,0.41019126518078 0.29727745958914,0.59455491917823 c 0.0967838667801,0.1451758001702 1.04393403818625,1.09232597157635 1.18910983835646,1.18910983835645 c 0.4332168315131,0.28881122100874 0.6191890962519,0.18558999540498 0.8918323787674,0.59455491917822 c 0.3549014652106,0.53235219781594 0.3390929047394,1.02577106958903 0.8918323787673,1.4863872979456 c 0.3404411563796,0.28370096364962 0.875751881913,0.28119696273478 1.1891098383565,0.59455491917822 c 0.2215775359399,0.2215775359399 0.109262685723,0.6411460136126 0.2972774595891,0.89183237876735 c 0.1329465215639,0.17726202875191 0.4378759409565,0.14059848136739 0.5945549191782,0.29727745958911 c 0.07006896919,0.0700689691898 -0.024033458157,0.20114362696158 0,0.29727745958911 c 0.076000467826,0.30400187130445 0.1234577396612,0.6311027988755 0.2972774595891,0.89183237876735 c 0.054966621722,0.0824499325837 0.1981849730594,0 0.2972774595891,0 c 0.2972774595891,0 0.6098102179683,-0.094007386933 0.8918323787674,0 c 0.686996602869,0.22899886762301 -0.1338629856423,0.52762342635708 0.5945549191782,0.89183237876733 c 0.2658930431279,0.13294652156395 0.5945549191782,0 0.8918323787673,0 c 0.8918323787673,0 1.7836647575348,0 2.6754971363021,0 c 0.2972774595891,0 0.6003278465757,-0.0583009064383 0.8918323787673,0 c 0.2172746499099,0.043454929982 0.3759921840694,0.26085033707099 0.5945549191783,0.29727745958911 c 0.6842095862722,0.11403493104538 1.4007649753434,-0.13603544835605 2.0809422171238,0 c 0.2172746499098,0.043454929982 0.3963699461188,0.19818497305943 0.5945549191782,0.29727745958914 c 0.2972774595891,0.0990924865297 0.5845596221049,0.23582290825661 0.8918323787673,0.29727745958911 c 0.3886727095888,0.0777345419177 0.7927398922377,0 1.1891098383565,0 c 0.8918323787673,0 1.7836647575348,0 2.675497136302,0 c 0.3963699461189,0 0.7927398922377,0 1.1891098383565,0 c 0.2972774595891,0 0.6003278465758,-0.0583009064383 0.8918323787673,0 c 0.2172746499099,0.043454929982 0.3795931344855,0.24353701341592 0.5945549191783,0.29727745958911 c 0.192267665255,0.0480669163138 0.4002185643838,-0.0388672709589 0.5945549191782,0 c 0.3072727566624,0.0614545513325 0.5827379945471,0.24576172888574 0.8918323787673,0.2972774595891 c 0.4887211330516,0.0814535221753 1.0005464109597,-0.0971681773972 1.4863872979456,0 c 0.2725157124991,0.0545031424998 1.1981182462228,0.3783531303862 1.4863872979456,0.59455491917825 c 0.2242207014073,0.16816552605549 0.3703342177709,0.42638939312273 0.5945549191782,0.59455491917824 c 0.5195063016684,0.38962972625131 0.8868527304474,0.29478763542915 1.4863872979456,0.59455491917822 c 0.1232626433037,0.0616313216518 1.1489139748874,1.08862017968384 1.1891098383564,1.18910983835646 c 0.1517386387603,0.3793465969006 0.1455388208289,0.80976324145585 0.2972774595892,1.18910983835644 c 0.052045923718,0.13011480929417 0.2131946965613,0.18516710888547 0.2972774595891,0.29727745958914 c 0.2143698247176,0.28582643295685 0.4347730857138,0.57226871183842 0.5945549191782,0.89183237876733 c 0.1401379383796,0.28027587675915 0.1808992362047,0.60088682030619 0.2972774595891,0.89183237876735 c 0.082291830938,0.20572957734399 0.2435370134159,0.37959313448546 0.2972774595891,0.59455491917824 c 0.048066916314,0.19226766525507 0,0.39636994611881 0,0.59455491917822 c 0,0.59455491917822 0,1.18910983835647 0,1.78366475753469 c 0,0.69364740570791 0,1.38729481141588 0,2.08094221712381 c 0,0.29727745958914 0,0.59455491917819 0,0.89183237876733 c 0,0.0990924865297 -0.09909248653,0.29727745958913 0,0.29727745958913 c 0.1244297567521,0 -0.077532863136,-0.36195632977061 0,-0.59455491917824 c 0.07006896919,-0.21020690756937 0.243537013416,-0.37959313448546 0.2972774595891,-0.59455491917822 c 0.048066916314,-0.19226766525509 0,-0.39636994611884 0,-0.59455491917824 c 0,-0.0990924865297 -0.044315507188,-0.20864644521316 0,-0.29727745958911 c 0.062671591289,-0.12534318257738 0.2529619524012,-0.16433093802516 0.2972774595892,-0.29727745958911 c 0.1118940928829,-0.33568227864872 -0.073253127233,-1.12012166178043 0,-1.48638729794558 c 0.061454551333,-0.30727275666241 0.2457617288857,-0.58273799454709 0.2972774595891,-0.89183237876735 c 0.06516281774,-0.39097690644127 0,-0.79273989223765 0,-1.18910983835646 c 0,-0.068810776084 -0.053090731892,-1.67748329375135 0,-1.78366475753468 c 0.2276517684778,-0.45530353695567 0.5297533771236,-0.2324759175345 0.8918323787673,-0.59455491917825 c 0.07006896919,-0.0700689691898 -0.031335795644,-0.20327007265607 0,-0.29727745958911 c 0.07006896919,-0.21020690756936 0.2272084903994,-0.38434801160885 0.2972774595891,-0.59455491917822 c 0.031335795644,-0.094007386933 -0.054966621722,-0.2148275270054 0,-0.29727745958911 c 1.0691550523595,-1.60373257853918 0.092529812518,0.20474764707154 1.1891098383565,-0.89183237876735 c 0.9221899163875,-0.92218991638748 -0.6370867887973,-0.45863118749496 1.1891098383564,-1.18910983835646 c 0.1840101279694,-0.0736040511878 0.3963699461189,0 0.5945549191783,0 c 0.3963699461188,0 0.7927398922376,0 1.1891098383564,0 c 1.387294811416,0 2.7745896228318,0 4.1618844342477,0 c 2.9727745958911,0 5.9455491917823,0 8.9183237876734,0 c 0.8918323787673,0 1.7836647575347,0 2.675497136302,0 c 0.09909248653,0 0.2272084903994,0.0700689691898 0.2972774595891,0 c 0.07006896919,-0.0700689691898 -0.082449932584,-0.24231083786664 0,-0.29727745958911 c 0.2607295798919,-0.17381971992792 0.5878305074629,-0.22127699176299 0.8918323787674,-0.29727745958911 c 0.096133832628,-0.0240334581569 0.2272084903993,0.0700689691898 0.2972774595891,0 c 0.1566789782217,-0.15667897822172 0.1743683569241,-0.4101912651808 0.2972774595891,-0.59455491917824 c 0.077734541918,-0.11660181287662 0.1981849730594,-0.19818497305941 0.2972774595891,-0.29727745958911 c 0.09909248653,-0.0990924865297 0.1719342770118,-0.23460586830043 0.2972774595891,-0.29727745958911 c 0.088631014376,-0.044315507188 0.2032700726561,0.0313357956443 0.2972774595892,0 c 0.65536860553,-0.21845620184338 1.3132224711917,-0.79372799093028 1.4863872979455,-1.48638729794558 c 0.050295242366,-0.20118096946216 0,-1.88964217205495 0,-2.08094221712381 c 0,-1.58547978447525 0,-3.17095956895056 0,-4.75643935342583 c 0,-0.29727745958911 0,-0.59455491917822 0,-0.89183237876734 c 0,-0.0990924865297 0.07006896919,-0.22720849039932 0,-0.29727745958911 c -0.07006896919,-0.0700689691898 -0.1981849730594,0 -0.2972774595891,0"
       id="path2879"
       transform="matrix(0.4487052306144358,0,0,0.4444877125185061,0.3932304309482641,-0.4353313806133737)" />
    <path
       style="fill:none;stroke:white;stroke-width:1px;stroke-linecap:butt;stroke-linejoin:miter;stroke-opacity:1"
       d="m 162.9080478548349,62.130989054125 c 0.6821693397423,0.62688406349434 0.6974734276965,1.64076506072305 1.1891098383565,2.37821967671291 c 0.077734541918,0.11660181287664 0.2195429176714,0.18067564671247 0.2972774595891,0.29727745958911 c 0.122909102665,0.18436365399745 0.1405984813674,0.43787594095653 0.2972774595891,0.59455491917822 c 0.6150776451032,0.61507764510317 -0.02404386902,-0.9399201168072 0.5945549191783,0.29727745958914 c 0.044315507188,0.0886310143759 -0.050982663714,0.21230635339863 0,0.29727745958911 c 0.7529951357734,1.25499189295566 1.9488276115996,2.24610507118878 2.9727745958912,3.27005205548025 c 0.3963699461187,0.39636994611887 0.7927398922375,0.79273989223765 1.1891098383565,1.18910983835646 c 0.1981849730594,0.19818497305941 0.3703342177709,0.42638939312273 0.5945549191781,0.59455491917822 c 0.2858264329569,0.21436982471765 0.5854646984646,0.41073431099663 0.8918323787674,0.59455491917825 c 0.630324414873,0.37819464892381 0.7301322517967,0.31095927687241 1.4863872979456,0.59455491917821 c 0.4996527501794,0.18736978131723 0.9959045136171,0.38434801160888 1.4863872979457,0.59455491917825 c 0.2036618909228,0.0872836675383 0.3795931344853,0.24353701341592 0.5945549191782,0.29727745958911 c 0.192267665255,0.0480669163138 0.3990664659575,-0.0325814088701 0.5945549191781,0 c 0.4030097706087,0.0671682951014 0.783039964805,0.25215858475005 1.1891098383565,0.29727745958913 c 0.4924320529512,0.0547146725501 1.0099883037978,-0.13611399832799 1.4863872979457,0 c 0.26949196745,0.0769977049857 0.3286618760503,0.50592390480224 0.5945549191782,0.59455491917822 c 0.376029547732,0.12534318257735 0.7927398922375,0 1.1891098383565,0 c 0.5945549191781,0 1.1891098383563,0 1.7836647575346,0 c 1.5854797844753,0 3.1709595689506,0 4.7564393534259,0 c 0.3963699461187,0 0.7927398922375,0 1.1891098383565,0 c 0.4954624326485,0 0.9933837511083,-0.0493003546837 1.4863872979455,0 c 0.5027669411186,0.0502766941119 0.9842031685223,0.24147922298651 1.4863872979456,0.29727745958911 c 0.393945642361,0.0437717380401 0.7958007098286,-0.049163641066 1.1891098383566,0 c 0.4054137701099,0.0506767212637 0.7846473728897,0.23949710737959 1.1891098383563,0.29727745958911 c 0.294289670597,0.0420413815139 0.5945549191783,0 0.8918323787673,0 c 0.6936474057079,0 1.3872948114159,0 2.0809422171238,0 c 0.1981849730594,0 0.4002185643839,-0.0388672709589 0.5945549191782,0 c 0.3072727566624,0.0614545513325 0.5827379945471,0.24576172888574 0.8918323787673,0.29727745958911 c 0.293232679831,0.0488721133052 0.5945549191784,0 0.8918323787674,0 c 0.9909248652969,0 1.981849730594,0 2.9727745958911,0 c 0.2972774595892,0 0.5985996989364,-0.0488721133052 0.8918323787674,0 c 0.6698041385803,0.11163402309674 1.8410919217434,0.78440682777348 2.3782196767128,0.89183237876736 c 0.485840886986,0.0971681773972 0.9929596272109,-0.0448570609759 1.4863872979457,0 c 0.6002806693913,0.0545709699447 1.1839000571335,0.237300989549 1.7836647575346,0.2972774595891 c 0.3944028374697,0.039440283747 0.7927398922376,0 1.1891098383564,0 c 1.0900173518268,0 2.1800347036536,0 3.2700520554803,0 c 4.8555318399554,0 9.7110636799112,0 14.5665955198666,0 c 1.2882023248863,0 2.5764046497722,0 3.8646069746585,0 c 0.7927398922376,0 1.5854797844753,0 2.3782196767129,0 c 0.3963699461189,0 0.8004371287677,-0.0777345419177 1.1891098383565,0 c 0.1374165543062,0.0274833108613 0.1806756467125,0.21954291767136 0.2972774595891,0.29727745958911 c 0.1843636539974,0.12290910266498 0.3888253418343,0.21498562865155 0.5945549191782,0.29727745958914 c 0.2909455584612,0.11637822338446 0.6702548428275,0.0756999236492 0.8918323787674,0.29727745958911 c 0.2215775359399,0.2215775359399 0.1808992362046,0.60088682030619 0.2972774595891,0.89183237876735 c 0.082291830938,0.20572957734397 0.2149856286515,0.38882534183423 0.2972774595892,0.59455491917822 c 0.1163782233844,0.29094555846116 0.1981849730594,0.59455491917824 0.2972774595891,0.89183237876735 c 0.1981849730594,0.59455491917822 0.4223828167188,1.18106239892641 0.5945549191784,1.78366475753469 c 0.1122424784462,0.39284867456199 0.1145599426003,0.82367480437874 0.2972774595892,1.18910983835646 c 0.2215775359399,0.4431550718798 0.7494622963681,0.71454289702609 0.8918323787673,1.18910983835646 c 0.1708440988788,0.56948032959644 0,1.18910983835646 0,1.78366475753468 c 0,0.69364740570792 0,1.38729481141588 0,2.08094221712379 c 0,1.18910983835643 0,2.37821967671293 0,3.56732951506939 c 0,0.39636994611881 0,0.79273989223765 0,1.18910983835647 c 0,0.0990924865297 -0.09909248653,0.29727745958911 0,0.29727745958911 c 0.09909248653,0 -0.044315507188,-0.20864644521316 0,-0.29727745958911 c 0.3673464287788,-0.73469285755783 0.2972774595892,0.10261362962467 0.2972774595892,-0.59455491917825 c 0,-0.89183237876729 0,-1.78366475753469 0,-2.67549713630201 c 0,-0.19818497305943 -0.038867270959,-0.40021856438385 0,-0.59455491917824 c 0.061454551333,-0.30727275666241 0.2358229082566,-0.58455962210493 0.2972774595891,-0.89183237876736 c 0.057168742229,-0.28584371114334 -0.057168742229,-0.60598866762399 0,-0.89183237876733 c 0.080126931772,-0.40063465885738 0.2171505278177,-0.78847517949909 0.2972774595892,-1.18910983835646 c 0.019433635479,-0.0971681773972 0,-0.19818497305941 0,-0.29727745958911 c 0,-0.72392932763734 -0.048066916314,-0.9778612137613 0.2972774595892,-1.78366475753469 c 0.1407406849822,-0.32839493162511 0.3963699461188,-0.59455491917822 0.5945549191782,-0.89183237876733 c 0.09909248653,-0.49546243264852 0.1584678728796,-1.00055374446232 0.2972774595891,-1.48638729794558 c 0.1217440611803,-0.42610421413092 0.5217006741421,-0.75198436813884 0.5945549191782,-1.18910983835646 c 0.06516281774,-0.39097690644128 0,-0.79273989223765 0,-1.18910983835646 c 0,-0.0990924865297 -0.044315507188,-0.20864644521315 0,-0.29727745958911 c 0.062671591289,-0.12534318257737 0.2346058683004,-0.17193427701176 0.2972774595892,-0.29727745958911 c 0.044315507188,-0.088631014376 -0.044315507188,-0.20864644521318 0,-0.29727745958913 c 0.062671591289,-0.12534318257738 0.2195429176713,-0.18067564671247 0.2972774595891,-0.29727745958911 c 0.1229091026651,-0.18436365399745 0.1405984813674,-0.43787594095653 0.2972774595892,-0.59455491917822 c 0.1566789782217,-0.15667897822172 0.4101912651808,-0.17436835692416 0.5945549191782,-0.29727745958914 c 0.2332036257533,-0.1554690838355 0.3438685540234,-0.46921173660084 0.5945549191781,-0.59455491917821 c 0.066628857029,-0.0333144285147 1.1184676820771,0 1.1891098383565,0 c 0.7927398922378,0 1.5854797844753,0 2.3782196767128,0 c 1.0900173518266,0 2.1800347036539,0 3.2700520554804,0 c 0.5945549191781,0 1.1927462939932,-0.0656576070602 1.7836647575347,0 c 0.5990694480817,0.0665632720091 1.1845953094527,0.23071418758002 1.7836647575346,0.2972774595891 c 0.2954592317708,0.0328288035301 0.6003278465758,-0.0583009064383 0.8918323787673,0 c 0.21727464991,0.043454929982 0.3759921840694,0.26085033707099 0.5945549191782,0.29727745958911 c 0.3909769064413,0.0651628177402 0.7927398922377,0 1.1891098383564,0 c 0.2972774595891,0 0.6034308808846,-0.0721003744707 0.8918323787672,0 c 0.5176965322411,0.12942413306023 0.9654652109328,0.47879445539759 1.4863872979458,0.59455491917825 c 0.773862424894,0.17196942775422 1.5934472217873,-0.11211035070366 2.3782196767127,0 c 0.3102085503161,0.044315507188 0.5945549191783,0.19818497305941 0.8918323787674,0.29727745958911 c 0.3963699461189,0.0990924865297 0.7836960682464,0.24660073832536 1.1891098383565,0.29727745958911 c 1.0732478541064,0.1341559817633 2.1968042013739,-0.13415598176329 3.2700520554803,0 c 0.310938167671,0.0388672709589 0.5905311994633,0.21119140835937 0.8918323787674,0.29727745958913 c 0.392848674562,0.11224247844626 0.7836960682464,0.24660073832534 1.1891098383563,0.29727745958911 c 0.3933091285279,0.049163641066 0.7958007098286,-0.049163641066 1.1891098383565,0 c 1.3183562764948,0.16479453456185 1.5358876338108,0.60445498635127 2.9727745958911,0.89183237876735 c 0.3886727095888,0.0777345419177 0.7958007098288,-0.049163641066 1.1891098383565,0 c 0.8108275402201,0.10135344252751 1.5692947457795,0.47899421475915 2.3782196767129,0.59455491917822 c 0.68667589806,0.0980965568657 1.3926512422,-0.0860363718655 2.0809422171238,0 c 0.4054137701098,0.0506767212637 0.7846473728898,0.23949710737959 1.1891098383562,0.29727745958911 c 0.2942896705974,0.0420413815139 0.5945549191783,0 0.8918323787674,0 c 0.6936474057078,0 1.3872948114159,0 2.0809422171237,0 c 2.0809422171238,0 4.1618844342478,0 6.2428266513713,0 c 0.990924865297,0 1.9818497305941,0 2.9727745958912,0 c 0.4954624326485,0 1.0019229352172,0.10381379201324 1.4863872979455,0 c 0.9192064988423,-0.19697282118047 1.7536788663148,-0.70746872476988 2.6754971363022,-0.89183237876733 c 0.583009064383,-0.11660181287662 1.1920605013299,0.0591604256205 1.7836647575346,0 c 0.8130822789656,-0.0813082278966 1.56607992961,-0.50431716950013 2.378219676713,-0.59455491917824 c 0.4924320529511,-0.0547146725501 0.9959045136169,0.0700689691898 1.4863872979455,0 c 0.2193505695104,-0.0313357956443 0.3888253418341,-0.21498562865152 0.5945549191782,-0.29727745958911 c 0.290945558461,-0.11637822338446 0.5816238284515,-0.25296195240114 0.8918323787673,-0.29727745958911 c 0.3923862274629,-0.0560551753518 0.8130802906243,0.12534318257735 1.1891098383565,0 c 0.2658930431279,-0.088631014376 0.3286618760503,-0.50592390480229 0.5945549191782,-0.59455491917824 c 2.2595694174474,0 0.3600462925116,0.17726202875193 1.7836647575348,-0.29727745958911 c 0.3146935282736,-0.10489784275786 1.2430376478454,0.12167482505005 1.4863872979456,0 c 0.088631014376,-0.044315507188 -0.054966621722,-0.21482752700541 0,-0.29727745958911 c 0.8595620830102,-1.28934312451531 0.3835707862706,0.0815441428858 0.8918323787672,-1.18910983835647 c 0.1163782233846,-0.29094555846115 0.2111914083596,-0.5905311994632 0.2972774595893,-0.89183237876735 c 0.1122424784463,-0.39284867456199 0.1455388208289,-0.80976324145584 0.2972774595891,-1.18910983835644 c 0.052045923718,-0.13011480929416 0.2195429176714,-0.18067564671249 0.2972774595893,-0.29727745958913 c 0.5871418240042,-0.8807127360065 1.3774167312831,-2.32213999422693 1.7836647575347,-3.27005205548026 c 0.039034442788,-0.0910803665059 0,-0.19818497305943 0,-0.29727745958911 c 0,-0.19818497305943 -0.062671591289,-0.40654014531218 0,-0.59455491917824 c 0.044315507188,-0.13294652156392 0.2742389244365,-0.15904624867312 0.2972774595893,-0.29727745958911 c 0.081453522175,-0.4887211330516 0,-0.99092486529705 0,-1.48638729794557 c 0,-1.09001735182673 0,-2.18003470365352 0,-3.27005205548026"
       id="path2883"
       transform="matrix(0.4487052306144358,0,0,0.4444877125185061,0.3932304309482641,-0.4353313806133737)" />
    <text
       xml:space="preserve"
       style="font-size:8.33639px;line-height:125%;font-family:sans-serif;-inkscape-font-specification:'sans-serif, Normal';letter-spacing:0px;word-spacing:0px;fill:#ffffff;fill-opacity:1;stroke:none;stroke-width:0.446591px;stroke-linecap:butt;stroke-linejoin:miter;stroke-opacity:1"
       x="7.5052776"
       y="71.114746"
       id="text1023-1-6-9-7"
       transform="scale(1.004733,0.99528925)"><tspan
         sodipodi:role="line"
         x="7.5052776"
         y="71.114746"
         style="font-style:normal;font-variant:normal;font-weight:normal;font-stretch:normal;font-size:4.76366px;font-family:sans-serif;-inkscape-font-specification:'sans-serif, Normal';font-variant-ligatures:normal;font-variant-caps:normal;font-variant-numeric:normal;font-variant-east-asian:normal;fill:#ffffff;fill-opacity:1;stroke-width:0.446591px"
         id="tspan2875-2">Each block is loaded into memory only when it is</tspan></text>
    <text
       xml:space="preserve"
       style="font-size:8.33639px;line-height:125%;font-family:sans-serif;-inkscape-font-specification:'sans-serif, Normal';letter-spacing:0px;word-spacing:0px;fill:#ffffff;fill-opacity:1;stroke:none;stroke-width:0.446591px;stroke-linecap:butt;stroke-linejoin:miter;stroke-opacity:1"
       x="7.2397542"
       y="76.690735"
       id="text1023-1-6-9-8"
       transform="scale(1.004733,0.99528925)"><tspan
         sodipodi:role="line"
         x="7.2397542"
         y="76.690735"
         style="font-style:normal;font-variant:normal;font-weight:normal;font-stretch:normal;font-size:4.76366px;font-family:sans-serif;-inkscape-font-specification:'sans-serif, Normal';font-variant-ligatures:normal;font-variant-caps:normal;font-variant-numeric:normal;font-variant-east-asian:normal;fill:#ffffff;fill-opacity:1;stroke-width:0.446591px"
         id="tspan2875-5">being read, compressed, and written. This is for</tspan></text>
    <text
       xml:space="preserve"
       style="font-size:8.33639px;line-height:125%;font-family:sans-serif;-inkscape-font-specification:'sans-serif, Normal';letter-spacing:0px;word-spacing:0px;fill:#ffffff;fill-opacity:1;stroke:none;stroke-width:0.446591px;stroke-linecap:butt;stroke-linejoin:miter;stroke-opacity:1"
       x="7.3725162"
       y="82.133957"
       id="text1023-1-6-9-18"
       transform="scale(1.004733,0.99528925)"><tspan
         sodipodi:role="line"
         x="7.3725162"
         y="82.133957"
         style="font-style:normal;font-variant:normal;font-weight:normal;font-stretch:normal;font-size:4.76366px;font-family:sans-serif;-inkscape-font-specification:'sans-serif, Normal';font-variant-ligatures:normal;font-variant-caps:normal;font-variant-numeric:normal;font-variant-east-asian:normal;fill:#ffffff;fill-opacity:1;stroke-width:0.446591px"
         id="tspan2875-44">memory efficiency. (Extra blocks may be loaded</tspan></text>
    <text
       xml:space="preserve"
       style="font-size:8.33639px;line-height:125%;font-family:sans-serif;-inkscape-font-specification:'sans-serif, Normal';letter-spacing:0px;word-spacing:0px;fill:#ffffff;fill-opacity:1;stroke:none;stroke-width:0.446591px;stroke-linecap:butt;stroke-linejoin:miter;stroke-opacity:1"
       x="6.9281249"
       y="87.739845"
       id="text1023-1-6-9-18-4"
       transform="scale(1.004733,0.99528928)"><tspan
         sodipodi:role="line"
         x="6.9281249"
         y="87.739845"
         style="font-style:normal;font-variant:normal;font-weight:normal;font-stretch:normal;font-size:4.76366px;font-family:sans-serif;-inkscape-font-specification:'sans-serif, Normal';font-variant-ligatures:normal;font-variant-caps:normal;font-variant-numeric:normal;font-variant-east-asian:normal;fill:#ffffff;fill-opacity:1;stroke-width:0.446591px"
         id="tspan2875-44-7">ahead-of-time because most computers nowadays</tspan></text>
    <text
       xml:space="preserve"
       style="font-size:8.33639px;line-height:125%;font-family:sans-serif;-inkscape-font-specification:'sans-serif, Normal';letter-spacing:0px;word-spacing:0px;fill:#ffffff;fill-opacity:1;stroke:none;stroke-width:0.446591px;stroke-linecap:butt;stroke-linejoin:miter;stroke-opacity:1"
       x="6.6700878"
       y="92.972443"
       id="text1023-1-6-9-18-4-7"
       transform="scale(1.004733,0.99528929)"><tspan
         sodipodi:role="line"
         x="6.6700878"
         y="92.972443"
         style="font-style:normal;font-variant:normal;font-weight:normal;font-stretch:normal;font-size:4.76366px;font-family:sans-serif;-inkscape-font-specification:'sans-serif, Normal';font-variant-ligatures:normal;font-variant-caps:normal;font-variant-numeric:normal;font-variant-east-asian:normal;fill:#ffffff;fill-opacity:1;stroke-width:0.446591px"
         id="tspan2875-44-7-5">have beyond than 4GiB of RAM.)</tspan></text>
    <text
       xml:space="preserve"
       style="font-size:18.6667px;line-height:125%;font-family:sans-serif;-inkscape-font-specification:'sans-serif, Normal';letter-spacing:0px;word-spacing:0px;fill:#f3f3c1;fill-opacity:1;stroke:none;stroke-width:1px;stroke-linecap:butt;stroke-linejoin:miter;stroke-opacity:1"
       x="18.43120193481445"
       y="46.67256164550781"
       id="text1023-1-6-9-49"
       transform="matrix(0.4487052306144358,0,0,0.4444877125185061,-0.56063385911665,26.05209015354967)"><tspan
         sodipodi:role="line"
         x="18.43120193481445"
         y="46.67256164550781"
         style="font-style:normal;font-variant:normal;font-weight:normal;font-stretch:normal;font-size:10.6667px;font-family:sans-serif;-inkscape-font-specification:'sans-serif, Normal';font-variant-ligatures:normal;font-variant-caps:normal;font-variant-numeric:normal;font-variant-east-asian:normal"
         id="tspan2875-6">(len. 1026)</tspan></text>
    <text
       xml:space="preserve"
       style="font-size:18.6667px;line-height:125%;font-family:sans-serif;-inkscape-font-specification:'sans-serif, Normal';letter-spacing:0px;word-spacing:0px;fill:#f3f3c1;fill-opacity:1;stroke:none;stroke-width:1px;stroke-linecap:butt;stroke-linejoin:miter;stroke-opacity:1"
       x="18.43120193481445"
       y="46.67256164550781"
       id="text1023-1-6-9-5"
       transform="matrix(0.4487052306144358,0,0,0.4444877125185061,39.18957155718274,25.91995397555359)"><tspan
         sodipodi:role="line"
         x="18.43120193481445"
         y="46.67256164550781"
         style="font-style:normal;font-variant:normal;font-weight:normal;font-stretch:normal;font-size:10.6667px;font-family:sans-serif;-inkscape-font-specification:'sans-serif, Normal';font-variant-ligatures:normal;font-variant-caps:normal;font-variant-numeric:normal;font-variant-east-asian:normal"
         id="tspan2875-61">(len. 1025)</tspan></text>
    <text
       xml:space="preserve"
       style="font-size:18.6667px;line-height:125%;font-family:sans-serif;-inkscape-font-specification:'sans-serif, Normal';letter-spacing:0px;word-spacing:0px;fill:#f3f3c1;fill-opacity:1;stroke:none;stroke-width:1px;stroke-linecap:butt;stroke-linejoin:miter;stroke-opacity:1"
       x="18.43120193481445"
       y="46.67256164550781"
       id="text1023-1-6-9-9"
       transform="matrix(0.4487052306144358,0,0,0.4444877125185061,87.2099539392894,30.01617549343202)"><tspan
         sodipodi:role="line"
         x="18.43120193481445"
         y="46.67256164550781"
         style="font-style:normal;font-variant:normal;font-weight:normal;font-stretch:normal;font-size:10.6667px;font-family:sans-serif;-inkscape-font-specification:'sans-serif, Normal';font-variant-ligatures:normal;font-variant-caps:normal;font-variant-numeric:normal;font-variant-east-asian:normal"
         id="tspan2875-62">(len. 1026)</tspan></text>
    <text
       xml:space="preserve"
       style="font-size:18.6667px;line-height:125%;font-family:sans-serif;-inkscape-font-specification:'sans-serif, Normal';letter-spacing:0px;word-spacing:0px;fill:white;fill-opacity:1;stroke:none;stroke-width:1px;stroke-linecap:butt;stroke-linejoin:miter;stroke-opacity:1"
       x="18.43120193481445"
       y="46.67256164550781"
       id="text1023-1-6-9-3"
       transform="matrix(0.4487052306144358,0,0,0.4444877125185061,-0.694023810178057,40.98347826710653)"><tspan
         sodipodi:role="line"
         x="18.43120193481445"
         y="46.67256164550781"
         style="font-style:normal;font-variant:normal;font-weight:normal;font-stretch:normal;font-size:10.6667px;font-family:sans-serif;-inkscape-font-specification:'sans-serif, Normal';font-variant-ligatures:normal;font-variant-caps:normal;font-variant-numeric:normal;font-variant-east-asian:normal;fill:white;fill-opacity:1"
         id="tspan2875-92">Each block has one extra byte for null terminator.</tspan></text>
  </g>
  <metadata
     id="metadata134">
    <rdf:RDF>
      <cc:Work
         rdf:about="">
        <cc:license
           rdf:resource="http://creativecommons.org/publicdomain/zero/1.0/" />
        <dc:title>Hex-Zip File Splitting Demonstration</dc:title>
        <dc:date>11/24/2022</dc:date>
        <dc:creator>
          <cc:Agent>
            <dc:title>HackerDaGreat57 (Akshat Singh)</dc:title>
          </cc:Agent>
        </dc:creator>
        <dc:identifier>HZDMS1</dc:identifier>
        <dc:source>My brain</dc:source>
        <dc:language>English</dc:language>
        <dc:subject>
          <rdf:Bag>
            <rdf:li>3dOS</rdf:li>
            <rdf:li>Hex-Zip</rdf:li>
            <rdf:li>hex zip</rdf:li>
            <rdf:li>hz</rdf:li>
            <rdf:li>HZ</rdf:li>
            <rdf:li>hex</rdf:li>
            <rdf:li>zip</rdf:li>
            <rdf:li>file</rdf:li>
            <rdf:li>compression</rdf:li>
            <rdf:li>file compression</rdf:li>
          </rdf:Bag>
        </dc:subject>
        <dc:coverage>Demonstrates file splitting.</dc:coverage>
        <dc:description>This image shows how Hex-Zip splits input files before beginning compression.</dc:description>
        <dc:contributor>
          <cc:Agent>
            <dc:title>1. HackerDaGreat57</dc:title>
          </cc:Agent>
        </dc:contributor>
      </cc:Work>
      <cc:License
         rdf:about="http://creativecommons.org/publicdomain/zero/1.0/">
        <cc:permits
           rdf:resource="http://creativecommons.org/ns#Reproduction" />
        <cc:permits
           rdf:resource="http://creativecommons.org/ns#Distribution" />
        <cc:permits
           rdf:resource="http://creativecommons.org/ns#DerivativeWorks" />
      </cc:License>
    </rdf:RDF>
  </metadata>
</svg>
